<svg width="483" height="30" viewBox="0 0 483 30" fill="none" xmlns="http://www.w3.org/2000/svg">
<path d="M453.683 15.2439C453.022 15.2697 452.354 15.2877 451.707 15.3257C451.286 15.3495 451.105 15.2822 450.824 15.2474C450.73 15.2353 450.63 15.2108 450.543 15.2141C449.888 15.2398 449.234 15.2686 448.58 15.2974C448.38 15.3576 448.254 15.4377 447.947 15.4674C447.647 15.4956 447.293 15.4962 446.959 15.5106C446.518 15.5283 446.078 15.546 445.637 15.5621C445.417 15.5702 445.237 15.5997 445.164 15.6551C445.15 15.6644 445.298 15.6871 445.378 15.7008C445.646 15.7464 445.907 15.7982 446.201 15.8331C446.482 15.8664 446.829 15.8105 447.13 15.8529C447.806 15.9486 447.813 15.947 448.327 15.9277C448.768 15.91 449.208 15.8908 449.649 15.8778C449.736 15.8746 449.836 15.8974 449.93 15.9095C450.211 15.9429 450.392 16.0194 450.806 15.9895C451.12 15.9659 451.467 15.9606 451.794 15.9478C452.069 15.9919 452.323 16.0421 452.618 16.0769C452.892 16.1103 452.973 16.1363 452.826 16.1811C452.693 16.2228 452.506 16.24 452.259 16.2435C452.039 16.2454 451.818 16.2596 451.598 16.2677C451.484 16.2725 451.378 16.2758 451.271 16.2806C450.85 16.2982 450.85 16.2982 450.081 16.2012C449.779 16.1633 449.439 16.2177 449.152 16.1813C448.958 16.157 448.79 16.1205 448.603 16.0947C448.523 16.0841 448.396 16.0827 448.295 16.086C447.962 16.0973 447.628 16.1056 447.307 16.1261C447.08 16.1403 446.947 16.1836 446.974 16.2266C446.981 16.2434 447.142 16.2678 447.235 16.2691C447.449 16.2718 447.676 16.2499 447.883 16.2603C448.084 16.2707 448.291 16.3011 448.439 16.3346C448.74 16.4048 449.08 16.3412 449.368 16.3591C449.668 16.3786 449.916 16.4396 450.204 16.476C450.278 16.4851 450.418 16.4695 450.531 16.4647C450.859 16.4533 451.186 16.4435 451.513 16.4322C451.788 16.4763 452.082 16.5157 452.33 16.566C452.779 16.6574 453.26 16.6919 453.841 16.6463C454.168 16.6212 454.488 16.6298 454.75 16.6893C455.018 16.7503 455.325 16.7436 455.665 16.7307C455.979 16.7179 456.3 16.6835 456.621 16.726C457.317 16.8201 457.323 16.8247 458.145 16.7864C458.392 16.7752 458.579 16.7718 458.766 16.8068C458.94 16.8387 459.128 16.8661 459.308 16.8965C459.636 16.8852 459.97 16.8738 460.297 16.861C460.717 16.8433 460.951 16.8644 461.053 16.9503C461.113 17.0024 461.141 17.05 461.288 17.0851C461.462 17.1278 461.649 17.1259 461.903 17.1132C462.143 17.102 462.317 17.0848 462.417 17.0294C462.456 17.0062 462.536 16.9846 462.61 16.966C462.669 16.9521 462.763 16.9304 462.816 16.9334C462.917 16.9394 463.05 16.956 463.084 16.976C463.414 17.1613 463.414 17.1628 463.748 17.216C464.116 17.2753 464.498 17.3284 464.833 17.3954C465.134 17.4548 465.434 17.4282 465.762 17.4276C466.009 17.4272 466.17 17.4668 466.15 17.5068C466.137 17.5299 466.044 17.5638 465.964 17.567C465.31 17.5989 464.649 17.6262 463.987 17.6488C463.907 17.652 463.807 17.6246 463.713 17.6109C463.526 17.5836 463.358 17.5408 463.158 17.532C462.957 17.5231 462.724 17.5466 462.503 17.5546C462.283 17.5627 462.049 17.5831 461.849 17.5711C461.648 17.5592 461.487 17.5149 461.3 17.486C461.213 17.4724 461.092 17.4526 461.019 17.4574C460.532 17.4951 460.17 17.445 459.822 17.378C459.748 17.3643 459.621 17.3553 459.528 17.3585C458.753 17.386 457.985 17.4181 457.211 17.4486C456.897 17.4614 456.642 17.4081 456.574 17.3176C456.54 17.2669 456.473 17.2164 456.472 17.1657C456.471 17.0735 456.103 17.0234 455.836 17.0346C455.395 17.0508 454.948 17.0638 454.514 17.0876C454.16 17.1067 453.859 17.0888 453.618 17.0339C453.337 16.9714 453.016 16.9842 452.696 17.0017C452.456 17.0144 452.389 17.0652 452.404 17.1927C452.419 17.2956 452.306 17.3281 451.872 17.3457C451.324 17.3682 450.77 17.3906 450.215 17.4085C450.129 17.4117 450.028 17.3858 449.941 17.3721C449.754 17.3448 449.586 17.3005 449.386 17.2916C449.185 17.2812 448.952 17.3047 448.731 17.3143C448.511 17.3224 448.277 17.3443 448.077 17.3339C447.876 17.3235 447.709 17.2777 447.528 17.2488C447.441 17.2351 447.334 17.2153 447.247 17.2185C446.806 17.2316 446.366 17.2508 445.925 17.2685C445.431 17.2878 445.431 17.2878 444.728 17.1937C444.407 17.1513 444.087 17.1856 443.773 17.1985C443.439 17.2113 443.125 17.218 442.864 17.157C442.689 17.1174 442.496 17.0931 442.289 17.1012C441.734 17.1206 441.187 17.1446 440.632 17.164C440.539 17.1672 440.412 17.1598 440.338 17.1461C439.983 17.0821 439.635 17.032 439.141 17.0652C438.714 17.0936 438.253 17.0959 437.826 17.1228C437.592 17.137 437.486 17.1863 437.533 17.2247C437.56 17.2446 437.701 17.2674 437.794 17.2672C438.008 17.2684 438.242 17.2449 438.442 17.2538C438.857 17.2715 439.065 17.4002 439.606 17.3639C439.926 17.3419 440.26 17.3336 440.594 17.3269C440.681 17.3252 440.775 17.3542 440.869 17.3694C441.136 17.4105 441.371 17.4638 441.758 17.4355C442.078 17.4134 442.419 17.4067 442.746 17.3938C443.267 17.373 443.267 17.3745 443.943 17.467C444.264 17.511 444.584 17.4751 444.898 17.4638C445.132 17.4558 445.352 17.44 445.54 17.4612C445.827 17.493 446.035 17.5663 446.389 17.5611C446.723 17.5559 447.05 17.5338 447.384 17.5256C447.591 17.5206 447.785 17.5449 447.953 17.586C448.127 17.6272 448.314 17.6453 448.541 17.6357C448.869 17.6229 449.202 17.6069 449.536 17.5987C449.63 17.597 449.737 17.6106 449.824 17.6227C450.011 17.6501 450.192 17.682 450.373 17.7109C450.7 17.7011 451.034 17.6975 451.355 17.6785C451.602 17.6642 451.775 17.6701 451.976 17.7004C452.231 17.7415 452.439 17.8149 452.852 17.7788C453.059 17.7615 453.3 17.7657 453.507 17.75C453.76 17.7296 453.934 17.737 454.115 17.7827C454.457 17.8697 454.884 17.8705 455.325 17.8359C455.805 17.7982 456.167 17.8406 456.528 17.9076C456.91 17.9776 456.91 17.9761 457.206 18.1461C457.293 18.1951 457.541 18.2177 457.748 18.2082C458.095 18.1922 458.396 18.1993 458.65 18.2573C458.918 18.3198 459.239 18.3116 459.566 18.2941C460 18.2703 460.434 18.2496 460.789 18.3381C460.963 18.3808 461.151 18.3912 461.384 18.38C462.045 18.3512 462.713 18.3332 463.361 18.2983C463.755 18.2761 463.982 18.3248 464.25 18.3659C464.611 18.4221 465.006 18.4721 465.008 18.5934C465.008 18.6134 465.102 18.6363 465.182 18.6515C465.356 18.6835 465.544 18.7108 465.724 18.7412C465.992 18.7868 466.253 18.8248 466.62 18.7996C466.941 18.7791 467.281 18.7723 467.608 18.7579C467.936 18.7435 468.236 18.7353 468.531 18.7932C468.872 18.8587 469.234 18.921 469.622 18.9695C469.896 19.0044 470.256 18.9438 470.551 18.991C470.732 19.0198 470.906 19.0533 471.1 19.0776C471.18 19.0882 471.307 19.0803 471.414 19.077C471.634 19.0705 471.861 19.0655 472.075 19.0498C472.322 19.0324 472.509 19.0352 472.696 19.0702C472.87 19.1022 473.045 19.1464 473.245 19.1553C473.546 19.1686 473.879 19.1065 474.181 19.1767C474.335 19.2118 474.529 19.2452 474.73 19.2556C474.93 19.266 475.164 19.2426 475.377 19.2437C475.471 19.2436 475.585 19.268 475.638 19.2878C475.672 19.2985 475.626 19.3278 475.579 19.3433C475.519 19.3618 475.433 19.3865 475.346 19.3898C474.685 19.4186 474.024 19.4428 473.363 19.47C472.969 19.4861 472.969 19.4861 472.172 19.3907C471.985 19.3679 471.778 19.3729 471.544 19.3841C471.231 19.3984 470.91 19.4251 470.583 19.398C470.154 19.2943 469.626 19.286 469.065 19.3269C468.832 19.3442 468.618 19.3446 468.444 19.3157C468.075 19.258 467.687 19.2049 467.359 19.1363C467.105 19.083 466.984 19.0786 466.878 19.1525C466.845 19.1756 466.812 19.2002 466.819 19.2217C466.86 19.2985 466.935 19.3736 466.976 19.4504C466.989 19.4719 466.936 19.4965 466.903 19.5196C466.797 19.5844 466.657 19.58 466.422 19.5266C466.188 19.4732 465.907 19.4384 465.533 19.4636C465.212 19.4857 464.865 19.4832 464.545 19.5068C464.051 19.5415 463.703 19.4929 463.348 19.4275C463.274 19.4138 463.147 19.4063 463.054 19.4096C462.059 19.4466 461.07 19.4883 460.075 19.5254C459.862 19.5334 459.668 19.5107 459.5 19.4695C459.326 19.4283 459.132 19.4072 458.918 19.4152C458.037 19.449 457.155 19.4797 456.274 19.5212C455.913 19.5387 455.626 19.5192 455.378 19.4659C455.191 19.4263 455.017 19.4143 454.783 19.4193C454.529 19.4244 454.349 19.4401 454.223 19.4848C454.103 19.528 454.19 19.554 454.458 19.5873C454.745 19.6237 455.013 19.6709 455.287 19.7134C455.508 19.7069 455.728 19.6942 455.942 19.6954C456.036 19.6952 456.123 19.7227 456.217 19.7379C456.484 19.782 456.732 19.8261 457.112 19.8009C457.433 19.7788 457.773 19.7736 458.101 19.7592C458.555 19.7415 458.555 19.7415 459.291 19.8371C459.478 19.8613 459.678 19.8594 459.919 19.8452C460.126 19.8341 460.34 19.8552 460.487 19.901C460.548 19.9194 460.528 19.9501 460.402 20.0518C460.403 20.127 460.543 20.093 460.589 20.0437C460.662 19.9729 460.521 19.9501 460.255 19.989C460.068 20.017 459.975 20.0571 460.022 20.0893C460.049 20.1061 460.176 20.1274 460.402 20.0518C460.989 19.9586 461.437 19.947 461.864 19.9217C462.118 19.9074 462.278 19.9133 462.479 19.9529C462.72 20.0001 462.961 20.0504 463.355 20.0251C463.782 19.9967 464.236 19.9928 464.67 19.969C465.071 19.9468 465.279 20.0141 465.533 20.0536C465.841 20.1007 466.181 20.0463 466.462 20.0735C466.756 20.1006 466.964 20.1679 467.305 20.1796C467.799 20.1372 468.114 20.2135 468.489 20.2635C468.783 20.3014 469.13 20.267 469.444 20.2496C469.798 20.2305 470.092 20.2469 470.34 20.3018C470.621 20.3643 470.935 20.3499 471.255 20.3356C472.003 20.3035 472.03 20.2989 472.465 20.3826C472.78 20.4435 473.08 20.4153 473.394 20.4071C473.668 20.4481 473.936 20.4922 474.224 20.5286C474.298 20.5377 474.438 20.5221 474.551 20.5173C474.878 20.5044 475.212 20.4915 475.539 20.4787C475.76 20.4706 475.993 20.4472 476.194 20.456C476.394 20.4664 476.562 20.5107 476.743 20.5396C476.923 20.5685 477.111 20.5973 477.285 20.6277C477.553 20.6734 477.807 20.7113 478.181 20.6876C478.501 20.6671 478.835 20.6604 479.169 20.646C479.59 20.6283 479.576 20.633 480.359 20.7238C480.781 20.7738 481.214 20.7116 481.642 20.7047C481.855 20.7012 482.063 20.7178 482.21 20.7621C482.271 20.7804 482.251 20.8112 482.271 20.8372C481.169 20.8806 480.061 20.9179 478.972 20.9705C478.552 20.9912 478.331 20.9363 478.103 20.8906C477.728 20.8175 477.235 20.9259 476.88 20.8312C476.665 20.7748 476.358 20.743 475.991 20.7713C475.777 20.7871 475.55 20.7859 475.329 20.8001C474.769 20.8349 474.254 20.8373 473.805 20.7321C473.651 20.6955 473.431 20.6759 473.27 20.6409C473.082 20.6028 472.902 20.5816 472.681 20.5896C471.686 20.6282 470.698 20.6668 469.71 20.7085C469.623 20.7117 469.536 20.7349 469.463 20.7519C469.277 20.7953 469.337 20.829 469.638 20.8561C469.738 20.8652 469.819 20.885 469.913 20.9002C470.093 20.929 470.261 20.9749 470.461 20.9853C470.662 20.9957 470.896 20.9738 471.116 20.9657C471.336 20.9576 471.57 20.9342 471.771 20.943C471.971 20.9535 472.138 20.9977 472.326 21.025C472.413 21.0387 472.52 21.0616 472.607 21.0599C473.048 21.0499 473.482 21.0323 473.923 21.0177C474.197 21.0587 474.432 21.1182 474.759 21.1314C474.966 21.1403 475.186 21.123 475.4 21.1257C475.494 21.1271 475.614 21.1499 475.661 21.1698C475.688 21.1821 475.602 21.2129 475.535 21.2284C475.282 21.2872 474.935 21.2771 474.621 21.2961C474.28 21.3166 473.973 21.311 473.712 21.2516C473.537 21.2119 473.343 21.1907 473.13 21.1988C472.575 21.2197 472.028 21.2437 471.474 21.2616C471.38 21.2648 471.266 21.2512 471.179 21.2406C470.477 21.1481 470.477 21.145 469.983 21.1659C469.255 21.1963 469.255 21.1963 468.766 21.1157C468.673 21.1005 468.572 21.0715 468.492 21.0732C467.717 21.0991 466.949 21.125 466.181 21.1617C465.928 21.1729 465.754 21.1732 465.566 21.1336C465.406 21.1001 465.218 21.062 465.018 21.0531C464.81 21.0442 464.584 21.0677 464.363 21.0757C464.143 21.0838 463.909 21.1042 463.715 21.0922C463.515 21.0803 463.341 21.0376 463.166 21.0072C462.986 20.9752 462.792 20.9771 462.545 20.9898C461.784 21.0264 461.777 21.0219 461.021 20.9279C460.934 20.9173 460.82 20.9052 460.727 20.9085C460.173 20.9279 459.625 20.9519 459.071 20.9713C458.857 20.9793 458.65 20.9597 458.502 20.9154C458.442 20.8971 458.462 20.8663 458.421 20.8064C458.374 20.7927 458.427 20.8172 458.441 20.8402C458.541 20.837 458.662 20.8398 458.735 20.8274C458.922 20.7979 459.015 20.7593 458.968 20.7271C458.941 20.7103 458.814 20.689 458.733 20.6891C458.586 20.6894 458.46 20.7234 458.421 20.8064C458.001 20.8579 457.553 20.8694 457.119 20.8947C456.865 20.9106 456.705 20.9032 456.504 20.8636C456.263 20.8148 456.015 20.7676 455.621 20.7929C455.194 20.8213 454.74 20.8267 454.299 20.849C453.792 20.8744 453.57 20.7365 453.142 20.7403C452.701 20.7442 452.261 20.7711 451.82 20.7903C451.433 20.8063 451.433 20.8063 450.63 20.7078C450.335 20.6715 449.989 20.7258 449.701 20.6879C449.507 20.6637 449.339 20.6271 449.152 20.6013C449.072 20.5907 448.945 20.5909 448.845 20.5942C448.29 20.6136 447.729 20.6268 447.195 20.6616C446.588 20.7026 446.126 20.6603 445.691 20.5705C445.144 20.5883 444.589 20.5985 444.048 20.6286C443.655 20.6508 443.427 20.6005 443.159 20.5595C443.065 20.5458 442.985 20.5229 442.885 20.517C442.784 20.511 442.664 20.5235 442.557 20.5283C442.117 20.5459 441.662 20.5544 441.235 20.5828C440.708 20.6191 440.506 20.4934 440.098 20.4788C439.825 20.5545 439.68 20.6577 439.139 20.6663C438.698 20.6732 438.257 20.6986 437.816 20.7163C437.596 20.7243 437.376 20.7339 437.155 20.742C436.801 20.7564 436.635 20.8166 436.71 20.9087C436.75 20.9593 436.784 21.0099 436.818 21.0606C436.886 21.1511 436.72 21.2282 436.44 21.2395C435.665 21.27 434.897 21.3021 434.123 21.3295C433.916 21.3376 433.715 21.3118 433.547 21.2706C433.373 21.2294 433.179 21.2113 432.966 21.2194C432.191 21.2499 431.423 21.282 430.648 21.3094C430.562 21.3127 430.448 21.2975 430.361 21.2854C430.174 21.258 429.993 21.2261 429.812 21.1972C429.371 21.2118 428.937 21.2218 428.503 21.2409C427.802 21.2698 427.802 21.2714 427.287 21.1878C427.193 21.1726 427.099 21.1435 427.012 21.1452C426.678 21.152 426.351 21.1679 426.017 21.1823C425.036 21.2239 425.036 21.2239 424.748 21.1783C424.487 21.1358 424.252 21.084 423.858 21.1092C423.431 21.1376 422.977 21.1476 422.536 21.1637C422.209 21.1751 421.882 21.1879 421.555 21.1916C421.468 21.1933 421.374 21.1642 421.28 21.149C421.012 21.1019 420.751 21.0639 420.384 21.0907C420.171 21.1064 419.944 21.1099 419.723 21.1179C419.149 21.1404 419.149 21.1404 418.206 21.0499C418.112 21.0408 417.998 21.0303 417.905 21.0351C417.13 21.0641 416.363 21.0961 415.588 21.1236C415.494 21.1268 415.381 21.1178 415.287 21.1103C414.231 21.023 414.231 21.023 413.109 21.068C412.681 21.0841 412.668 21.0902 412.219 21.0096C412.019 20.9746 411.851 20.958 411.618 20.9692C410.736 21.0076 409.848 21.0337 408.974 21.0782C408.58 21.0973 408.352 21.0516 408.084 21.0106C407.99 20.997 407.89 20.9664 407.81 20.9681C406.928 20.9988 406.047 21.0357 405.165 21.0664C405.085 21.0696 404.985 21.0391 404.891 21.0254C404.71 20.9981 404.536 20.9569 404.335 20.948C404.128 20.9392 403.901 20.9626 403.674 20.9707C403.12 20.9916 403.12 20.9901 402.478 20.9005C402.391 20.8884 402.277 20.8717 402.19 20.8749C401.309 20.9072 400.42 20.9348 399.546 20.9809C399.045 21.0064 398.704 20.9624 398.349 20.8985C398.275 20.8848 398.148 20.8789 398.055 20.8821C397.06 20.9192 396.072 20.9608 395.077 20.9979C394.87 21.0059 394.669 20.9802 394.501 20.9405C394.233 20.878 393.92 20.8862 393.586 20.9006C392.818 20.9342 392.811 20.9327 392.356 20.8597C392.262 20.8445 392.182 20.8247 392.081 20.8172C391.988 20.8097 391.868 20.8145 391.768 20.8177C391.327 20.8339 390.886 20.8515 390.445 20.8692C390.005 20.8869 389.557 20.8969 389.123 20.9237C388.589 20.9569 388.334 20.8575 387.959 20.8121C387.412 20.833 386.851 20.8462 386.31 20.8794C385.896 20.9047 385.702 20.8375 385.427 20.8026C385.334 20.7905 385.233 20.7646 385.146 20.7678C384.151 20.8033 383.156 20.8419 382.168 20.8851C381.928 20.8947 381.767 20.8827 381.566 20.8462C381.118 20.764 381.098 20.7671 380.35 20.7992C380.023 20.8136 379.709 20.8264 379.427 20.7639C379.18 20.7075 378.879 20.6942 378.525 20.7132C378.091 20.737 377.644 20.7501 377.203 20.7662C376.762 20.7839 376.322 20.8077 375.881 20.8161C375.527 20.8244 375.312 20.7526 375.031 20.7162C374.944 20.7056 374.824 20.7043 374.724 20.7075C374.283 20.7221 373.829 20.7337 373.402 20.7605C372.881 20.7937 372.593 20.7097 372.225 20.6612C372.144 20.6506 372.011 20.6569 371.91 20.6617C371.136 20.6907 370.368 20.7228 369.593 20.7533C369.319 20.7123 369.038 20.6729 368.763 20.6319C368.323 20.648 367.882 20.6656 367.441 20.6818C367.107 20.6946 366.767 20.6998 366.453 20.7234C366.046 20.7549 365.845 20.683 365.57 20.6481C365.477 20.636 365.376 20.6101 365.289 20.6133C364.735 20.6312 364.181 20.6506 363.633 20.6776C363.113 20.7047 362.904 20.5667 362.476 20.569C362.035 20.5713 361.581 20.5921 361.154 20.6205C360.66 20.6536 360.312 20.605 359.957 20.5396C359.884 20.5259 359.757 20.5184 359.663 20.5217C359.109 20.5411 358.561 20.5651 358.007 20.5845C357.914 20.5877 357.8 20.5802 357.706 20.5712C356.65 20.4824 356.65 20.4808 356.189 20.5001C355.862 20.5129 355.528 20.5289 355.194 20.5371C355.1 20.5404 354.987 20.5267 354.9 20.5146C354.204 20.4221 354.204 20.4205 353.703 20.4398C353.262 20.4575 352.821 20.4752 352.381 20.4928C352.106 20.4518 351.825 20.4124 351.551 20.3714C351.003 20.3923 350.442 20.4086 349.901 20.4372C349.648 20.45 349.481 20.4456 349.287 20.4076C349.045 20.3619 348.804 20.3085 348.404 20.3354C347.977 20.3638 347.522 20.3676 347.088 20.3914C346.568 20.42 346.352 20.2805 345.931 20.2828C345.49 20.2851 345.036 20.3059 344.609 20.3343C344.115 20.3674 343.767 20.3188 343.412 20.2534C343.339 20.2397 343.212 20.2322 343.118 20.2355C341.903 20.2821 340.694 20.3288 339.479 20.3785C338.731 20.409 338.731 20.4105 337.307 20.3285C337.207 20.3225 337.1 20.3166 337 20.3198C336.559 20.3344 336.105 20.346 335.677 20.3728C335.157 20.406 334.868 20.3235 334.5 20.2735C334.42 20.2628 334.293 20.2692 334.186 20.2725C333.853 20.2838 333.525 20.2982 333.191 20.3111C332.751 20.3288 332.31 20.3464 331.869 20.3641C331.595 20.3246 331.314 20.2836 331.04 20.2441C330.492 20.2651 329.931 20.2768 329.39 20.31C328.976 20.3353 328.782 20.2711 328.507 20.2347C328.414 20.2226 328.313 20.1966 328.226 20.1983C327.231 20.2339 326.236 20.2709 325.248 20.3157C324.841 20.3348 324.653 20.266 324.379 20.2311C324.285 20.2205 324.178 20.2008 324.091 20.204C323.43 20.2266 322.769 20.2539 322.108 20.2812C321.734 20.2972 321.734 20.2972 320.918 20.2033C320.824 20.1927 320.717 20.1822 320.624 20.1854C318.527 20.2659 316.437 20.3509 314.34 20.4314C314.126 20.4394 313.932 20.4167 313.765 20.3755C313.591 20.3344 313.397 20.3132 313.183 20.3212C312.301 20.355 311.413 20.3858 310.539 20.4272C310.178 20.4448 309.891 20.4253 309.643 20.3719C309.455 20.3323 309.281 20.3173 309.048 20.3269C308.607 20.3461 308.166 20.3622 307.726 20.3799C307.285 20.3975 306.844 20.4152 306.403 20.4329C305.963 20.4506 305.515 20.4605 305.081 20.4874C304.547 20.5206 304.286 20.4258 303.918 20.3788C303.256 20.403 302.595 20.4272 301.941 20.4529C301.059 20.4867 300.178 20.5236 299.297 20.5558C299.216 20.5591 299.116 20.5316 299.022 20.5179C298.748 20.48 298.547 20.4266 298.139 20.4442C296.163 20.529 294.173 20.6016 292.19 20.6849C291.776 20.7026 291.595 20.6368 291.314 20.602C291.22 20.5914 291.113 20.5701 291.026 20.5733C289.924 20.6136 288.823 20.6585 287.721 20.7019C287.273 20.7196 287.273 20.7196 286.524 20.6256C286.437 20.615 286.323 20.6014 286.23 20.6046C284.794 20.6594 283.365 20.7172 281.929 20.7734C281.716 20.7815 281.522 20.7603 281.348 20.7191C281.18 20.6779 280.979 20.6553 280.772 20.6633C279.45 20.7148 278.121 20.7647 276.806 20.8207C276.452 20.8367 276.158 20.8234 275.903 20.7685C275.722 20.7289 275.542 20.7123 275.315 20.7219C273.332 20.8006 271.348 20.8763 269.365 20.9596C268.985 20.9757 268.717 20.9469 268.476 20.8967C268.282 20.8571 268.115 20.8497 267.874 20.8562C267.62 20.8643 267.467 20.8815 267.327 20.9278C267.148 20.9881 267.035 21.0635 266.607 21.0689C266.167 21.0743 265.719 21.0935 265.285 21.1204C264.871 21.1472 264.677 21.0784 264.416 21.0374C264.222 21.0085 264.041 21.0042 263.794 21.0185C263.567 21.0312 263.427 21.0575 263.294 21.1069C263.002 21.2119 262.975 21.2119 262.613 21.1465C262.419 21.1115 262.245 21.0842 262.031 21.0907C261.15 21.1229 260.269 21.1583 259.387 21.1951C258.88 21.216 258.873 21.2191 258.491 21.1429C258.304 21.1048 258.123 21.0867 257.903 21.0963C255.479 21.1927 253.055 21.286 250.631 21.387C250.257 21.403 250.003 21.3712 249.735 21.3256C249.648 21.3104 249.561 21.289 249.461 21.283C249.36 21.2771 249.247 21.2834 249.14 21.2867C247.377 21.3558 245.608 21.4219 243.852 21.4987C243.451 21.5162 243.237 21.4675 242.962 21.428C242.869 21.4143 242.788 21.393 242.688 21.387C242.587 21.3826 242.467 21.3935 242.36 21.3983C240.598 21.4674 238.828 21.5335 237.072 21.6103C236.651 21.6279 236.47 21.5637 236.196 21.5304C236.102 21.5183 236.002 21.4954 235.915 21.4986C235.361 21.5165 234.813 21.5405 234.259 21.5614C232.937 21.6144 231.614 21.6643 230.292 21.7189C229.785 21.7397 229.563 21.6033 229.135 21.6102C228.581 21.6189 228.033 21.6506 227.479 21.673C227.038 21.6907 226.598 21.7068 226.157 21.726C225.723 21.7437 225.723 21.7437 224.64 21.6565C224.546 21.6489 224.432 21.6384 224.339 21.6416C222.796 21.7011 221.247 21.7607 219.711 21.8248C219.358 21.8392 219.063 21.8321 218.809 21.7757C218.628 21.736 218.441 21.7164 218.22 21.726C215.903 21.8176 213.593 21.9092 211.276 21.9992C211.189 22.0025 211.075 21.9873 210.988 21.9751C210.801 21.9478 210.62 21.9159 210.439 21.887C210.306 21.9226 210.133 21.9551 210.047 21.9952C209.927 22.0492 209.767 22.0648 209.513 22.0745C209.259 22.0842 209.099 22.0814 208.898 22.0418C208.657 21.993 208.409 21.955 208.015 21.9711C205.591 22.0721 203.167 22.1639 200.744 22.2633C200.343 22.2794 200.155 22.2121 199.874 22.1773C199.78 22.1667 199.673 22.15 199.586 22.1532C198.591 22.1903 197.603 22.2304 196.608 22.269C193.85 22.3782 191.093 22.4829 188.342 22.5983C187.841 22.6191 187.5 22.5813 187.145 22.5159C187.071 22.5022 186.944 22.4947 186.851 22.4979C182.991 22.6491 179.131 22.8017 175.278 22.9543C175.071 22.9624 174.871 22.9382 174.703 22.8985C174.529 22.8573 174.335 22.8377 174.121 22.8457C172.359 22.9149 170.596 22.984 168.833 23.0547C168.392 23.0723 168.385 23.0739 167.93 23.0009C167.837 22.9857 167.736 22.9567 167.663 22.9599C167.509 22.9678 167.362 23.0065 167.256 23.0589C167.15 23.1144 166.983 23.1301 166.736 23.1412C166.482 23.1524 166.315 23.1481 166.121 23.1116C165.873 23.0659 165.646 23.0218 165.245 23.0378C160.177 23.2433 155.109 23.441 150.04 23.645C149.633 23.661 149.445 23.5968 149.164 23.562C149.071 23.5514 148.977 23.5362 148.877 23.5333C148.77 23.5304 148.656 23.5398 148.549 23.5446C140.283 23.8709 132.016 24.1986 123.749 24.5249C123.255 24.5442 123.262 24.5441 122.722 24.6864C122.656 24.7034 122.569 24.7266 122.476 24.7299C119.945 24.8326 117.408 24.9322 114.87 25.0319C113.768 25.0753 112.667 25.1202 111.565 25.1621C111.171 25.1766 111.171 25.1766 110.231 25.3442C110.151 25.3581 110.057 25.3767 109.964 25.38C105.557 25.5551 101.15 25.7302 96.7358 25.9022C96.3886 25.9151 96.1084 25.9433 95.9489 26.0173C95.836 26.0697 95.6894 26.1007 95.4691 26.1103C92.3841 26.2324 89.2992 26.3561 86.2075 26.4751C85.8402 26.4896 85.6202 26.533 85.4406 26.5978C85.3807 26.6195 85.3275 26.6441 85.2409 26.6596C85.1609 26.6736 85.0407 26.6784 84.9406 26.6832C82.2963 26.7877 79.6521 26.8952 77.0011 26.995C76.6071 27.0096 76.4474 27.0667 76.2544 27.1269C76.1878 27.147 76.1413 27.1748 76.0547 27.1887C75.968 27.2012 75.841 27.2014 75.7342 27.2047C73.5306 27.2914 71.3271 27.3798 69.1235 27.4666C68.6959 27.4596 68.6034 27.5489 68.3969 27.603C68.3237 27.6216 68.2707 27.6462 68.184 27.6587C68.0906 27.6711 67.9702 27.6698 67.8566 27.6731C66.0938 27.7422 64.331 27.8159 62.5614 27.8805C62.154 27.895 62.0748 27.9735 61.855 28.0276C61.7817 28.0447 61.7086 28.0709 61.6219 28.0757C60.5201 28.1221 59.4183 28.1655 58.3165 28.2074C57.9493 28.2219 57.9492 28.2203 57.3031 28.3735C57.2298 28.3906 57.1431 28.4092 57.0496 28.4139C55.4003 28.4813 53.7443 28.5457 52.0883 28.6115C51.8746 28.6196 51.7281 28.6567 51.6219 28.7091C51.5156 28.7615 51.3624 28.7956 51.1487 28.8037C49.8266 28.8566 48.5043 28.9112 47.1822 28.9596C46.8149 28.9725 46.5749 29.0113 46.4154 29.0807C46.2958 29.1332 46.1491 29.1595 45.9154 29.1692C44.5933 29.2206 43.2712 29.2767 41.9423 29.322C41.555 29.335 41.3551 29.3876 41.1956 29.4524C41.0693 29.5048 40.9225 29.5235 40.6755 29.5332C38.2515 29.6265 35.8209 29.7198 33.4038 29.8223C32.9964 29.8399 32.7886 29.7865 32.521 29.7486C32.1395 29.6955 31.7848 29.6377 31.7834 29.5179C31.7831 29.4994 31.6693 29.4781 31.5889 29.4629C30.993 29.3487 30.9929 29.3487 30.8979 29.226C30.8436 29.1508 30.7825 29.0741 30.7348 28.9974C30.6464 28.8715 30.4322 28.8396 29.8178 28.8637C29.5975 28.8718 29.3772 28.8829 29.1568 28.8895C28.8296 28.9008 28.5818 28.8505 28.5205 28.7584C28.4865 28.7078 28.4459 28.6572 28.4119 28.6065C28.7457 28.5937 28.739 28.5922 29.3246 28.4052C29.5708 28.3265 29.5709 28.3265 29.0956 28.2489C28.9149 28.2201 28.7408 28.1881 28.5467 28.1608C28.4597 28.1486 28.3461 28.1411 28.2526 28.1444C27.6983 28.1638 27.1508 28.1862 26.6033 28.2087C25.7218 28.244 25.7217 28.244 24.8246 28.0889C24.751 28.0767 24.6371 28.0539 24.6503 28.0416C24.7231 27.9846 24.9032 27.9597 25.1303 27.9531C25.4642 27.9433 25.7913 27.9274 26.1185 27.9146C26.3389 27.9065 26.5592 27.8969 26.7796 27.8888C26.986 27.8301 27.1992 27.7729 27.3922 27.7126C27.6984 27.6199 27.6982 27.6168 27.2766 27.5531C27.0088 27.5105 26.7211 27.4726 26.4467 27.4331C26.1195 27.446 25.7857 27.4604 25.4584 27.4717C25.0444 27.4862 24.877 27.4573 24.7689 27.3577C24.6743 27.2703 24.787 27.1948 25.1074 27.1758C25.4345 27.1568 25.7418 27.144 25.9079 27.0653C26.0673 26.9898 26.3475 26.9601 26.6948 26.9533C26.9152 26.9484 27.1355 26.9372 27.3559 26.9276C27.643 26.9148 27.7957 26.8362 27.7345 26.7488C27.7005 26.692 27.633 26.6445 27.3724 26.6326C26.216 26.5809 26.2025 26.5824 25.6267 26.4789C25.5732 26.4698 25.5329 26.4422 25.5527 26.4284C25.5859 26.4053 25.6589 26.3713 25.7391 26.3666C26.5069 26.3315 27.2748 26.2994 28.0428 26.275C28.2965 26.2669 28.4835 26.2558 28.5696 26.1988C28.6889 26.1203 28.6346 26.0482 28.4001 25.9948C28.3264 25.978 28.2058 25.9567 28.1257 25.9584C27.2442 25.9876 26.3695 26.0244 25.488 26.0536C25.4079 26.0568 25.2606 26.031 25.227 26.0111C25.1597 25.9743 25.2593 25.925 25.4929 25.9077C25.7999 25.8841 26.1139 25.882 26.32 25.8048C26.606 25.6953 26.9588 25.5948 27.2782 25.4898C27.3314 25.4712 27.4179 25.4357 27.3979 25.4327C27.2304 25.3992 27.0364 25.3734 26.8623 25.3414C26.5677 25.2882 26.5667 25.2129 26.6326 25.1406C26.6854 25.0821 26.8855 25.0587 27.1327 25.0583C27.2396 25.0581 27.3732 25.0579 27.4598 25.0439C27.6866 25.0097 27.7596 24.9666 27.6456 24.9345C27.5786 24.9162 27.4581 24.8903 27.3779 24.8935C25.9489 24.9467 24.5131 24.9983 23.0909 25.0638C22.6702 25.0829 22.4759 25.0249 22.2215 24.9839C22.0274 24.9519 21.8468 24.94 21.6066 24.9634C21.3797 24.9853 21.1592 24.9734 21.0182 24.923C20.9042 24.8817 21.1041 24.846 21.6448 24.8051C21.7449 24.7973 21.8583 24.7925 21.9316 24.777C22.7046 24.6097 22.7045 24.6082 23.2387 24.5857C23.7595 24.5649 23.7596 24.5633 24.0325 24.4737C24.1589 24.432 24.2986 24.3903 24.4183 24.3471C24.4649 24.3301 24.5447 24.2992 24.5179 24.2901C24.3704 24.2427 24.1697 24.2323 23.936 24.2435C23.4153 24.2705 22.8005 24.25 22.5284 24.3965C22.4222 24.452 22.2553 24.4676 22.0149 24.4772C19.5976 24.5705 17.1804 24.67 14.7564 24.7602C14.3624 24.7748 14.1828 24.8319 14.0299 24.8952C13.8969 24.9476 13.7501 24.9632 13.4964 24.9729C13.2426 24.9826 13.0422 24.9875 12.8946 24.9371C12.8074 24.9065 12.8803 24.8634 13.0802 24.82C13.3667 24.758 13.3123 24.6813 13.2179 24.6093C13.1505 24.5618 12.943 24.5283 12.7226 24.5318C12.3953 24.5385 12.0817 24.5559 11.807 24.495C11.6462 24.4599 11.4455 24.4357 11.2647 24.4053C10.9166 24.3429 10.5684 24.279 10.0812 24.3213C9.747 24.3065 9.5125 24.2516 9.24476 24.2091C8.7963 24.1392 8.75608 24.1285 9.07583 24.0526C9.43556 23.9675 9.15357 23.8574 9.35298 23.7741C9.56567 23.6846 9.85876 23.6057 10.1183 23.5223C10.1848 23.5007 10.2447 23.4806 10.3113 23.459C10.1573 23.4285 10.0165 23.3904 9.83589 23.3692C9.60174 23.3419 9.48107 23.3084 9.49327 23.2131C9.44634 23.1993 9.46667 23.2346 9.52023 23.2438C9.58047 23.2529 9.72746 23.2449 9.80081 23.2341C9.98751 23.2045 10.0805 23.166 10.0333 23.1338C10.0064 23.1169 9.8793 23.0956 9.79913 23.0958C9.65216 23.096 9.52566 23.1301 9.48658 23.2131C8.73913 23.2774 7.96443 23.3095 7.18979 23.3354C7.10966 23.3386 7.00913 23.308 6.91542 23.2928C6.60748 23.2411 6.60746 23.2427 5.70539 23.2289C5.61185 23.2275 5.48472 23.2062 5.43769 23.1848C5.24282 23.0914 5.24829 22.9885 5.15355 22.8888C5.32646 22.8239 5.49925 22.7606 5.67886 22.6973C6.03806 22.5692 6.50444 22.4563 6.78332 22.316C6.72228 22.2408 6.64118 22.1656 6.93438 22.1037C7.76851 22.0254 7.76189 22.0254 7.98813 21.9513C8.6336 21.7412 9.27233 21.5296 9.94456 21.3226C10.1243 21.2685 10.124 21.2393 9.80301 21.2168C9.70272 21.2109 9.59567 21.2095 9.48882 21.2128C9.15492 21.2241 8.82124 21.2523 8.49381 21.2468C8.16641 21.2427 7.92509 21.1755 7.65736 21.1345C7.38293 21.092 7.1085 21.0479 6.83405 21.0038C6.52012 21.009 6.20672 21.0526 5.89189 20.984C5.65074 20.9306 5.34966 20.8927 5.07522 20.8486C5.28089 20.7315 5.66734 20.6417 5.96671 20.5383C6.23948 20.4441 6.24603 20.4456 6.98001 20.3722C7.32699 20.3378 7.44513 20.1639 7.15057 20.1137C6.79575 20.0529 6.42102 19.9967 6.05956 19.939C5.74563 19.9441 5.42554 19.9862 5.12407 19.9176C4.88961 19.8657 4.62191 19.8308 4.23468 19.8515C3.58039 19.8864 2.91256 19.9045 2.25152 19.9333C2.0245 19.9429 1.77717 19.9372 1.67633 19.8851C1.60907 19.8484 1.8022 19.7973 2.02253 19.7862C2.35637 19.7703 2.65674 19.7513 2.82282 19.6742C2.98222 19.5971 3.27585 19.5735 3.62311 19.5622C3.7166 19.559 3.82334 19.5403 3.86988 19.5218C4.1093 19.4323 4.3756 19.355 4.89004 19.3572C5.10345 19.3261 5.21648 19.2875 5.14922 19.2507C5.1089 19.2308 4.96836 19.205 4.88823 19.2082C4.33393 19.2245 3.77965 19.2408 3.23886 19.2694C2.98515 19.2822 2.79135 19.2856 2.63045 19.2397C2.51651 19.2092 2.57612 19.1676 2.78936 19.1227C2.97595 19.084 3.02891 19.0393 3.01491 18.9871C2.98003 18.8658 2.77914 18.8308 2.1379 18.8396C1.67702 18.8466 1.5632 18.8268 1.46172 18.7225C1.4347 18.698 1.3676 18.6643 1.41416 18.6473C1.70015 18.5423 1.88565 18.413 2.42617 18.3629C2.63973 18.3441 2.86677 18.3437 2.9999 18.3035C3.13302 18.2633 3.25277 18.217 3.3926 18.1783C3.56573 18.132 3.68534 18.0887 3.60482 18.0597C3.47057 18.0077 3.25681 18.0035 3.00985 18.0223C2.79626 18.0381 2.56915 18.04 2.3488 18.0496C1.95485 18.0672 1.63377 18.0278 1.58618 17.9603C1.45708 17.7823 1.32128 17.6058 1.20554 17.4278C1.19192 17.4063 1.2249 17.3786 1.27812 17.3601C1.46439 17.2952 1.66413 17.2334 1.8571 17.1701C2.08336 17.0975 2.44434 17.1107 2.75148 17.0964C3.18547 17.0756 3.18534 17.0772 3.76475 16.9287C3.99118 16.8699 4.38564 16.8923 4.61882 16.8396C4.6921 16.8226 4.80533 16.7947 4.7851 16.7794C4.75814 16.7595 4.62441 16.7443 4.52409 16.7353C4.43045 16.7262 4.31685 16.7218 4.2167 16.7266C3.00138 16.7733 1.79281 16.823 0.57747 16.8681C0.370466 16.8762 0.142909 16.8428 0.0688432 16.7953C-0.00518537 16.7509 0.0141363 16.697 0.000158038 16.6464C0.193128 16.583 0.412791 16.5243 0.578982 16.4564C0.705277 16.4039 0.851995 16.3806 1.10582 16.3771C1.43979 16.3719 1.76695 16.3529 2.14089 16.3385C2.83294 16.113 3.51145 15.8767 4.25694 15.6511C4.55646 15.56 4.48197 15.4679 4.54092 15.371C4.59996 15.2818 5.0477 15.2949 5.34801 15.2682C5.58825 15.2463 5.66771 15.197 5.57377 15.1634C5.52008 15.1435 5.39962 15.1206 5.30609 15.1208C5.08563 15.1212 4.86535 15.1354 4.64498 15.1435C4.42462 15.1515 4.17071 15.1474 3.99066 15.1738C3.81726 15.1987 3.70426 15.2511 3.59123 15.2958C3.4649 15.3452 3.29821 15.3624 3.04439 15.3659C2.71708 15.3696 2.38992 15.384 2.0627 15.3953C1.70122 15.336 1.32632 15.2783 0.978163 15.2159C0.911208 15.2037 0.897345 15.1684 0.903745 15.1454C0.916376 15.0854 0.815745 15.0487 0.594931 15.0199C0.407576 14.9957 0.25348 14.9606 0.0794112 14.9302C0.212518 14.8885 0.359056 14.8482 0.465402 14.8035C0.698081 14.7094 0.991236 14.6413 1.499 14.6435C1.69868 14.5832 1.85807 14.5092 2.11811 14.4673C2.36481 14.4269 2.78619 14.4661 2.97214 14.3751C3.06513 14.3304 3.20488 14.2795 3.38503 14.2607C3.67194 14.231 4.04623 14.2458 4.2122 14.1594C4.31181 14.1101 4.45818 14.0653 4.65177 14.0527C4.87206 14.0384 5.0991 14.035 5.25908 14.0055C5.34574 13.99 5.43898 13.9653 5.43872 13.9438C5.43855 13.9299 5.30478 13.9086 5.21114 13.8996C5.12416 13.889 5.01037 13.8815 4.9102 13.8848C4.57628 13.8945 4.24915 13.912 3.91523 13.9218C3.82174 13.925 3.71475 13.9145 3.61443 13.9054C3.32019 13.8814 3.33982 13.8506 3.57296 13.7949C3.80613 13.7407 3.97239 13.6713 4.16536 13.608C4.37901 13.5968 4.64625 13.601 4.79286 13.5715C5.03947 13.5235 5.21227 13.454 5.41196 13.3938C5.63231 13.3842 5.8594 13.3807 6.06629 13.3635C6.15306 13.3572 6.19276 13.3233 6.26601 13.3032C6.39915 13.2646 6.51214 13.2091 6.69229 13.1903C6.9859 13.1621 7.34677 13.1723 7.51944 13.0875C7.61905 13.0381 7.77201 12.9856 7.95903 12.9822C8.48004 12.9752 8.69947 12.8903 8.96572 12.8099C9.16541 12.7497 9.59335 12.7797 9.81308 12.7194C9.95959 12.6807 10.066 12.6329 10.2125 12.5958C10.2724 12.5803 10.3992 12.5724 10.4994 12.5676C11.0469 12.5436 11.6012 12.5258 12.1487 12.5002C12.2355 12.4955 12.3154 12.4723 12.382 12.4537C12.5218 12.4136 12.6079 12.3581 12.7812 12.3317C12.9546 12.3053 13.2018 12.3048 13.4155 12.2968C14.1033 12.2725 14.1568 12.2786 14.4692 12.1474C14.7218 12.041 15.3441 12.1152 15.5498 11.9981C15.6692 11.9303 15.8889 11.8746 16.2829 11.8662C16.8373 11.8545 17.3847 11.8244 17.939 11.8034C18.4331 11.7841 18.4265 11.7841 18.9592 11.6403C19.1989 11.5754 19.5531 11.584 19.867 11.5712C20.2009 11.5583 20.5079 11.5393 20.6673 11.4623C20.8267 11.3867 21.1203 11.3616 21.4609 11.3502C21.7748 11.3389 22.129 11.346 22.3754 11.2841C22.9749 11.1356 22.9682 11.1341 23.3889 11.118C24.05 11.0923 24.711 11.0665 25.3721 11.0393C25.8128 11.0216 26.2737 11.0177 26.6875 10.9832C26.9878 10.9581 27.1203 10.8718 27.3133 10.8116C27.8609 10.7876 28.4084 10.7636 28.9559 10.7411C29.7238 10.7091 30.4984 10.6801 31.273 10.6495C31.6063 10.5906 31.6516 10.4615 32.2127 10.4543C32.5467 10.4507 32.8738 10.4301 33.2077 10.4173C33.7619 10.3948 34.3093 10.3662 34.8637 10.3545C35.2845 10.3461 35.3568 10.263 35.5767 10.2104C35.6499 10.1918 35.7165 10.1656 35.8033 10.1608C36.6712 10.1163 37.5662 10.1055 38.4139 10.041C38.5007 10.0347 38.5805 10.0023 38.6002 9.97926C38.6134 9.96695 38.4996 9.94411 38.426 9.93349C38.339 9.92135 38.2253 9.90925 38.1318 9.91249C35.374 10.0202 32.6162 10.1295 29.8584 10.2372C29.4711 10.2532 29.4711 10.2517 28.5312 10.4223C28.4512 10.4363 28.3578 10.4518 28.2576 10.4566C27.8169 10.4758 27.3695 10.4873 26.9355 10.5111C26.5817 10.5302 26.2876 10.5122 26.0331 10.4574C25.8522 10.4177 25.6649 10.4058 25.4378 10.4093C25.184 10.4143 25.0173 10.4315 24.8708 10.4732C24.6778 10.5304 24.5784 10.6043 24.1711 10.6204C22.2947 10.6897 20.4182 10.7667 18.5485 10.8406C18.2877 10.8196 18.1604 10.7875 18.2267 10.749C18.2666 10.7259 18.3464 10.695 18.4265 10.6918C19.1944 10.6582 19.969 10.6292 20.7369 10.5972C20.8437 10.5924 20.9907 10.5952 21.0506 10.5797C21.3437 10.5101 21.4494 10.3977 22.0038 10.3891C22.3244 10.3839 22.6514 10.3603 22.9584 10.3383C23.0452 10.332 23.125 10.2996 23.1448 10.2765C23.1513 10.2642 23.0441 10.2413 22.9638 10.2307C22.6693 10.1867 22.3293 10.2411 22.035 10.2108C21.9347 10.2003 21.7941 10.1851 21.7738 10.1667C21.7603 10.1499 21.8735 10.122 21.9535 10.105C22.0268 10.0895 22.1268 10.0755 22.2269 10.0707C23.1083 10.0338 23.9898 9.99542 24.8713 9.96624C25.232 9.95486 25.4853 9.916 25.6448 9.84505C25.7644 9.79261 25.911 9.76471 26.1381 9.75664C27.6806 9.69711 29.223 9.63144 30.7722 9.57652C31.1596 9.56356 31.3594 9.51251 31.519 9.44618C31.6453 9.39372 31.792 9.37503 32.0391 9.36538C34.2494 9.28165 36.4462 9.18873 38.6565 9.10808C39.0638 9.09354 39.1833 9.02727 39.3897 8.97007C39.463 8.94997 39.5093 8.92531 39.6027 8.91286C39.6961 8.9004 39.8164 8.90172 39.9299 8.89845C41.6928 8.82932 43.4557 8.7556 45.2253 8.69108C45.6393 8.67653 45.7184 8.59957 45.9315 8.54543C46.0048 8.5284 46.0714 8.50064 46.1581 8.49588C47.4803 8.44135 48.8024 8.38989 50.1245 8.33689C51.0059 8.30156 51.8873 8.26623 52.7688 8.23244C53.2028 8.21632 53.2028 8.21477 53.7889 8.0678C53.8555 8.05079 53.9489 8.03065 54.0357 8.02589C56.5731 7.92316 59.1038 7.82507 61.6413 7.72387C61.8549 7.71582 62.0081 7.6802 62.1144 7.62778C62.2206 7.57536 62.374 7.53976 62.581 7.53172C64.5642 7.45146 66.5474 7.37274 68.5373 7.29707C68.8979 7.28416 69.1512 7.24684 69.3107 7.17743C69.4303 7.12499 69.577 7.09709 69.804 7.08901C71.7873 7.01182 73.7705 6.93001 75.7605 6.85589C76.1411 6.8414 76.3275 6.78885 76.5138 6.72707C76.5803 6.70545 76.6334 6.67002 76.7135 6.6668C77.7017 6.62207 78.6831 6.57581 79.6782 6.54489C80.0922 6.53188 80.2318 6.46711 80.3981 6.40537C80.5311 6.35598 80.6846 6.33881 80.9383 6.33223C81.4927 6.31744 82.0401 6.29038 82.5809 6.26332C82.661 6.25858 82.7609 6.2246 82.7673 6.20308C82.7802 6.16311 82.6261 6.13572 82.3721 6.12234C79.7278 6.22679 77.0769 6.33125 74.4326 6.4357C73.9986 6.45336 73.9986 6.45336 73.4124 6.60033C73.3458 6.61735 73.2525 6.63749 73.159 6.64226C70.6216 6.74345 68.0909 6.8431 65.5534 6.9443C65.3397 6.95235 65.1865 6.98795 65.0803 7.04037C64.974 7.09279 64.8207 7.12839 64.6137 7.13643C62.1898 7.23282 59.7659 7.33075 57.3353 7.42255C56.9747 7.43546 56.7213 7.47122 56.5618 7.54217C56.4422 7.59461 56.2956 7.62253 56.0685 7.63061C53.7514 7.72067 51.4409 7.81531 49.1171 7.90231C48.8834 7.9104 48.7093 7.86615 48.7221 7.82464C48.7285 7.80312 48.8282 7.76763 48.9083 7.76442C50.1169 7.71162 51.3188 7.65729 52.5342 7.61677C52.9416 7.60378 53.0609 7.53597 53.2673 7.47876C53.3339 7.45868 53.3871 7.43247 53.4738 7.42156C53.5672 7.40911 53.6874 7.41044 53.801 7.40717C56.6656 7.29312 59.5303 7.17753 62.4017 7.06961C62.8157 7.05353 62.8948 6.9781 63.1079 6.92396C63.1812 6.9054 63.2477 6.87763 63.3345 6.87441C64.2159 6.83601 65.0973 6.80221 65.9788 6.76842C67.5213 6.70736 69.0637 6.64629 70.6129 6.58522C71.0603 6.56755 71.0603 6.56754 71.6331 6.42213C71.6997 6.40511 71.793 6.38346 71.8799 6.38024C75.9598 6.21798 80.0398 6.05572 84.1197 5.895C84.3334 5.88695 84.4866 5.85135 84.5929 5.79893C84.6991 5.74805 84.8523 5.71091 85.0593 5.70133C90.5749 5.48281 96.0838 5.26429 101.599 5.04885C101.96 5.03439 102.213 5.00169 102.373 4.9292C102.486 4.87677 102.639 4.84886 102.866 4.83924C108.929 4.5998 114.993 4.36036 121.062 4.11937C125.142 3.95865 129.222 3.79486 133.302 3.63721C133.676 3.62274 133.876 3.57476 134.062 3.51144C134.122 3.48983 134.182 3.45439 134.262 3.45118C135.137 3.41125 136.011 3.3744 136.886 3.33755C137.16 3.37855 137.435 3.41803 137.709 3.45903C137.916 3.40029 138.115 3.34002 138.322 3.28128C139.644 3.23443 140.946 3.16304 142.282 3.13921C142.369 3.13752 142.462 3.16655 142.556 3.18175C143.179 3.27746 143.533 3.26916 143.925 3.13943C144.065 3.0931 144.185 3.05141 144.398 3.04336C145.059 3.01456 145.727 2.99496 146.382 2.96156C146.735 2.94404 147.03 2.95889 147.284 3.01376C147.465 3.05339 147.652 3.06997 147.873 3.06037C149.088 3.01217 150.297 2.96551 151.512 2.91424C151.599 2.91102 151.678 2.88475 151.745 2.8662C151.885 2.82601 152.005 2.7828 152.138 2.74109C152.318 2.76689 152.519 2.78652 152.666 2.82006C152.854 2.85968 153.028 2.85937 153.281 2.84817C158.129 2.65386 162.984 2.46414 167.832 2.26829C168.246 2.25221 168.427 2.31643 168.708 2.34974C168.801 2.36186 168.895 2.37706 168.995 2.37996C169.102 2.38284 169.216 2.37344 169.323 2.36864C172.962 2.22405 176.601 2.08099 180.24 1.9364C180.721 1.91713 180.721 1.91713 181.437 2.01114C181.524 2.02328 181.638 2.03691 181.731 2.03214C183.387 1.96934 185.043 1.90195 186.693 1.83763C186.906 1.82958 187.087 1.85384 187.281 1.88884C187.663 1.95731 187.689 1.95727 187.969 1.85539C188.102 1.80753 188.242 1.77808 188.462 1.76387C188.702 1.74809 188.896 1.75238 189.084 1.77971C189.351 1.81765 189.546 1.88183 189.953 1.86422C191.716 1.78896 193.486 1.72597 195.242 1.64918C195.642 1.63158 195.857 1.68344 196.124 1.72138C196.218 1.73505 196.305 1.75641 196.405 1.76084C196.506 1.76528 196.626 1.7543 196.733 1.74951C198.936 1.66272 201.146 1.57747 203.343 1.48455C203.757 1.46693 203.938 1.53267 204.219 1.56598C204.313 1.57811 204.42 1.59944 204.507 1.59622C205.829 1.54629 207.158 1.49327 208.48 1.44028C208.954 1.42102 208.954 1.42255 209.677 1.51502C209.764 1.52715 209.878 1.53925 209.971 1.53601C211.514 1.47649 213.063 1.41542 214.605 1.35436C215.079 1.3351 215.079 1.33511 216.45 1.41261C216.55 1.41859 216.657 1.42763 216.757 1.42438C218.52 1.35526 220.29 1.28765 222.053 1.21392C222.407 1.19948 222.701 1.21125 222.955 1.26612C223.136 1.30575 223.323 1.32233 223.544 1.31273C225.527 1.23401 227.517 1.15835 229.493 1.07503C229.874 1.059 230.121 1.09236 230.389 1.13645C230.476 1.15166 230.563 1.17302 230.664 1.17899C230.764 1.18496 230.877 1.17861 230.984 1.17382C232.968 1.0951 234.957 1.02097 236.934 0.936114C237.334 0.918518 237.549 0.970378 237.817 1.00832C237.91 1.02199 238.011 1.04947 238.091 1.04779C238.866 1.02033 239.64 0.995946 240.408 0.956205C240.822 0.933977 241.003 1.00432 241.284 1.03763C241.378 1.04822 241.485 1.07109 241.572 1.06787C243.228 1.00508 244.884 0.939216 246.533 0.871826C246.767 0.862202 246.941 0.875715 247.128 0.915334C247.376 0.968675 247.664 0.989685 248.024 0.972159C248.792 0.93549 249.567 0.90957 250.341 0.879034C250.795 0.861346 250.795 0.861351 252.186 0.938826C252.286 0.944797 252.393 0.953822 252.493 0.950576C253.816 0.899117 255.144 0.849186 256.46 0.79313C256.814 0.777152 257.108 0.790464 257.362 0.84533C257.543 0.884961 257.724 0.901556 257.951 0.891944C259.166 0.843743 260.375 0.79555 261.59 0.74735C262.031 0.729685 262.471 0.699722 262.912 0.698956C263.233 0.699935 263.468 0.773269 263.755 0.809641C263.836 0.820256 263.969 0.807748 264.076 0.804489C265.619 0.74343 267.168 0.686963 268.703 0.618233C269.104 0.600638 269.319 0.652498 269.586 0.690441C269.68 0.704105 269.78 0.731586 269.861 0.729911C270.415 0.712049 270.962 0.68805 271.517 0.667116C272.178 0.641386 272.845 0.62179 273.5 0.586855C274.034 0.558273 274.236 0.691579 274.664 0.695445C274.991 0.699486 275.325 0.672793 275.652 0.659934C276.313 0.634205 276.974 0.605406 277.635 0.582749C277.869 0.574661 278.049 0.549756 278.122 0.494322C278.135 0.483545 278.021 0.460707 277.948 0.447008C277.057 0.291849 277.057 0.291842 276.162 0.327195C275.608 0.349666 275.06 0.372129 274.506 0.391528C274.413 0.394763 274.306 0.382659 274.212 0.373603C273.945 0.34795 273.971 0.317181 274.197 0.26148C274.424 0.205779 274.597 0.137886 274.79 0.0745612C275.064 0.114029 275.332 0.153494 275.606 0.192963C275.827 0.184898 276.047 0.175311 276.267 0.167247C277.369 0.125389 278.471 0.0819912 279.573 0.0432057C279.653 0.0399939 279.753 0.0705505 279.847 0.085751C280.115 0.12984 280.356 0.167819 280.743 0.150247C281.731 0.103977 282.726 0.0699859 283.715 0.0298613C284.149 0.0122079 284.149 0.0122094 284.911 0.106137C284.998 0.116741 285.112 0.128834 285.205 0.125599C286.2 0.0885359 287.189 0.0484159 288.184 0.00981598C288.397 0.00176322 288.605 0.0213746 288.759 0.0656604C288.819 0.0839915 288.806 0.114735 289.063 0.366247C289.854 0.569206 290.395 0.546768 290.942 0.527381C291.176 0.519294 291.383 0.511245 291.536 0.480252C291.616 0.463214 291.716 0.438455 291.716 0.418483C291.716 0.40312 291.569 0.37879 291.475 0.37588C290.813 0.346302 290.186 0.411927 289.538 0.426879C289.238 0.433546 288.977 0.380227 288.922 0.292751C288.908 0.268194 288.888 0.242113 288.868 0.217567C288.847 0.193021 288.834 0.166928 288.813 0.142382C288.553 0.135153 288.399 0.163069 288.286 0.215501C288.193 0.258679 288.06 0.308073 287.88 0.331431C287.7 0.356325 287.453 0.352153 287.233 0.360218C287.019 0.368271 286.785 0.388646 286.585 0.37824C286.384 0.366298 286.223 0.322016 286.036 0.294688C285.949 0.281012 285.842 0.261233 285.755 0.264456C284.987 0.291908 284.226 0.319338 283.465 0.354459C283.064 0.373591 282.863 0.309424 282.608 0.269921C282.408 0.239543 282.207 0.247563 282.175 0.318291C282.09 0.487434 282.398 0.557567 283.079 0.524121C283.64 0.495493 284.148 0.490017 284.59 0.593719C284.65 0.607441 284.791 0.613341 284.877 0.610117C285.425 0.59073 285.966 0.566744 286.513 0.547357C286.613 0.54411 286.721 0.55006 286.814 0.556043C288.178 0.636636 288.178 0.638181 288.639 0.618945C288.859 0.609344 289.073 0.60129 289.05 0.367808C289.468 0.11666 290.136 0.0986037 290.783 0.0606071C291.204 0.0368317 291.385 0.104119 291.659 0.138978C291.753 0.151106 291.853 0.175508 291.94 0.172285C293.376 0.119092 294.805 0.0628316 296.234 0.00350569C296.474 -0.00612978 296.648 0.00278798 296.836 0.0424069C297.077 0.0926871 297.344 0.124492 297.725 0.105395C298.486 0.0672012 299.261 0.0428162 300.035 0.0107444C300.429 -0.00530313 300.429 -0.00531892 301.225 0.088551C301.312 0.0991542 301.426 0.111248 301.519 0.108013C302.294 0.0805503 303.062 0.0469633 303.83 0.0179756C304.044 0.00992288 304.238 0.0310925 304.405 0.0722825C304.573 0.113473 304.773 0.13463 304.98 0.126589C305.755 0.0975899 306.523 0.0655395 307.291 0.0365519C307.384 0.0333169 307.498 0.043873 307.585 0.0544763C308.401 0.148311 308.401 0.148296 308.775 0.132283C309.323 0.108287 309.884 0.0965704 310.424 0.0649047C310.952 0.0332621 311.227 0.121884 311.588 0.170419C312.576 0.133367 313.571 0.102457 314.553 0.0577347C314.954 0.038603 315.168 0.088925 315.436 0.128405C315.529 0.142069 315.623 0.171099 315.71 0.169412C316.044 0.162687 316.371 0.145222 316.698 0.132363C317.026 0.119504 317.36 0.106635 317.687 0.0937762C318.061 0.137679 318.31 0.241717 318.844 0.205454C319.164 0.183389 319.505 0.178188 319.832 0.165329C320.159 0.15247 320.493 0.139601 320.82 0.126742C321.041 0.118678 321.268 0.113668 321.481 0.0994699C321.875 0.0757409 322.07 0.150692 322.351 0.184003C322.445 0.194595 322.552 0.212833 322.639 0.20961C323.3 0.186953 323.967 0.167359 324.615 0.130898C325.116 0.102375 325.457 0.147878 325.812 0.211788C325.886 0.225487 326.013 0.232947 326.106 0.229712C326.881 0.202249 327.648 0.168644 328.416 0.139656C328.623 0.131615 328.824 0.155847 328.992 0.1955C329.166 0.236679 329.36 0.256329 329.573 0.248277C330.341 0.219289 331.116 0.187208 331.884 0.15822C331.978 0.154985 332.091 0.167081 332.178 0.17922C332.928 0.273171 332.928 0.274709 333.368 0.255508C333.475 0.250713 333.589 0.247432 333.696 0.242637C334.243 0.220177 334.811 0.21152 335.345 0.173721C335.959 0.131174 336.407 0.182633 336.842 0.269448C337.39 0.250061 337.951 0.23833 338.485 0.206676C338.886 0.182935 339.1 0.24094 339.368 0.278883C339.462 0.292548 339.562 0.320027 339.642 0.316815C340.417 0.289352 341.191 0.26497 341.953 0.22524C342.366 0.203013 342.548 0.27182 342.829 0.306668C342.922 0.318796 343.023 0.340141 343.11 0.336918C343.55 0.323862 343.991 0.304651 344.432 0.286986C344.946 0.266121 344.946 0.267656 345.629 0.360187C345.95 0.404182 346.27 0.368289 346.584 0.356989C346.918 0.344119 347.232 0.334359 347.5 0.396883C347.667 0.436537 347.868 0.46077 348.075 0.454265C348.516 0.439673 348.963 0.425076 349.397 0.401277C349.744 0.382238 350.045 0.394 350.299 0.450402C350.48 0.490033 350.668 0.509691 350.888 0.500091C351.876 0.461503 352.871 0.421352 353.86 0.3843C353.946 0.381077 354.067 0.3947 354.147 0.408387C354.334 0.435716 354.515 0.466122 354.696 0.496535C355.13 0.481954 355.578 0.475047 356.005 0.452796C356.459 0.430499 356.873 0.422096 357.228 0.505978C357.302 0.524285 357.409 0.550203 357.496 0.548516C357.83 0.54179 358.157 0.525863 358.484 0.513005C358.811 0.500146 359.145 0.487277 359.472 0.474418C359.854 0.512164 360.096 0.622358 360.63 0.586095C360.95 0.56403 361.291 0.558829 361.618 0.54597C361.945 0.533112 362.279 0.518706 362.606 0.507384C362.713 0.504125 362.833 0.496231 362.927 0.502213C363.027 0.508185 363.114 0.529547 363.201 0.544759C363.469 0.588847 363.717 0.632976 364.097 0.606197C364.418 0.584132 364.758 0.57893 365.085 0.564535C365.533 0.546858 365.533 0.546861 366.276 0.64236C366.577 0.681782 366.917 0.628959 367.204 0.662258C367.398 0.684966 367.566 0.723075 367.753 0.748868C367.834 0.759482 367.96 0.763864 368.054 0.760629C368.495 0.746037 368.942 0.731439 369.376 0.707641C369.73 0.68859 370.024 0.706513 370.272 0.761391C370.453 0.801021 370.633 0.817616 370.86 0.808004C371.962 0.763073 373.064 0.724276 374.159 0.674748C374.533 0.657199 374.834 0.682801 375.042 0.737748C375.397 0.832383 375.897 0.719365 376.265 0.795542C376.493 0.842773 376.721 0.897688 377.134 0.873924C377.896 0.832658 378.67 0.809792 379.438 0.780804C379.713 0.821809 379.987 0.862822 380.268 0.903815C380.709 0.88615 381.149 0.868475 381.59 0.852346C381.917 0.839487 382.251 0.825082 382.578 0.813759C382.685 0.810501 382.799 0.804157 382.899 0.811664C382.999 0.819172 383.08 0.839009 383.174 0.854209C383.635 0.928687 383.635 0.930231 384.397 0.898183C384.724 0.883788 385.038 0.874024 385.312 0.935001C385.567 0.991403 385.868 1.00163 386.215 0.984126C386.869 0.952263 387.53 0.928071 388.198 0.905402C388.405 0.897361 388.599 0.923143 388.773 0.962785C389.035 1.02532 389.355 1.01862 389.682 1.00115C390.116 0.97889 390.544 0.956644 390.912 1.04204C390.986 1.06035 391.1 1.08625 391.18 1.08458C391.728 1.07133 392.282 1.06116 392.816 1.03104C393.35 1.00092 393.612 1.09572 393.98 1.14117C394.527 1.12025 395.082 1.09931 395.629 1.07839C395.736 1.07359 395.863 1.05955 395.956 1.06707C396.351 1.09865 396.579 1.21348 397.12 1.1772C397.434 1.15668 397.774 1.14995 398.102 1.14478C398.189 1.14309 398.303 1.169 398.363 1.18886C398.396 1.19956 398.363 1.22881 398.323 1.24424C398.204 1.28746 398.057 1.32767 397.951 1.37241C397.938 1.37858 398.065 1.406 398.139 1.41817C398.319 1.44551 398.526 1.44055 398.767 1.42784C398.974 1.41673 399.188 1.43786 399.335 1.4837C399.396 1.50203 399.376 1.53279 399.25 1.6344C399.251 1.70968 399.391 1.67563 399.437 1.62639C399.51 1.55559 399.369 1.53279 399.102 1.57166C398.916 1.59964 398.823 1.63975 398.87 1.67193C398.897 1.68878 399.024 1.71007 399.25 1.6344C399.837 1.5412 400.278 1.52355 400.718 1.50588C400.832 1.50107 400.965 1.48547 401.046 1.49455C401.333 1.53092 401.601 1.57502 401.882 1.61601C402.203 1.60623 402.503 1.58266 402.818 1.64203C403.26 1.72576 403.28 1.71804 403.707 1.7004C403.927 1.6908 404.148 1.68275 404.368 1.67469C404.588 1.66662 404.762 1.68936 404.957 1.72436C405.352 1.79588 405.385 1.79581 405.644 1.69704C405.797 1.63685 405.904 1.6167 406.098 1.64402C406.74 1.73662 406.747 1.74275 407.295 1.71414C407.749 1.69031 408.176 1.68342 408.511 1.77041C408.739 1.83147 408.812 1.81752 408.992 1.75268C409.471 1.58132 409.691 1.584 410.595 1.70534C411.016 1.76299 411.45 1.69925 411.877 1.69083C412.238 1.68405 412.492 1.72048 412.52 1.81722C412.541 1.8771 412.602 1.92002 412.842 1.93957C412.936 1.94709 413.05 1.95764 413.143 1.95441C413.697 1.93501 414.245 1.91255 414.799 1.89008C415.08 1.87884 415.232 1.80638 415.178 1.71122C415.117 1.60993 415.223 1.57286 415.623 1.54297C415.864 1.52565 416.058 1.5284 416.252 1.55572C416.466 1.58608 416.406 1.61383 416.22 1.66946C415.774 1.80543 415.828 1.88829 416.404 1.981C416.605 2.01292 416.765 2.04184 416.813 2.08939C416.84 2.11392 416.813 2.14623 416.874 2.16456C417.202 2.26692 417.657 2.3322 418.166 2.38048C418.653 2.33815 418.988 2.40669 419.362 2.46135C419.657 2.50386 420.004 2.46639 420.318 2.45048C420.671 2.43297 420.966 2.44475 421.22 2.50115C421.401 2.54078 421.588 2.55888 421.809 2.55082C422.249 2.53315 422.697 2.52163 423.131 2.49629C423.505 2.47413 423.786 2.50438 424.02 2.5562C424.315 2.62175 424.642 2.57663 424.949 2.58531C425.363 2.59534 425.572 2.73171 426.113 2.6939C426.433 2.67183 426.767 2.66358 427.101 2.65685C427.188 2.65516 427.295 2.6811 427.369 2.69941C427.724 2.78329 428.138 2.77796 428.592 2.75259C428.906 2.73514 429.213 2.71925 429.521 2.7771C430.03 2.87454 430.592 2.95961 431.128 3.04932C431.202 3.11986 431.15 3.2029 431.531 3.24372C431.732 3.26488 431.919 3.29683 432.073 3.33189C432.261 3.37305 432.434 3.38351 432.675 3.37233C433.109 3.35007 433.563 3.34466 433.99 3.31626C434.384 3.291 434.632 3.34128 434.873 3.38849C435.067 3.42656 435.248 3.44467 435.481 3.41661C435.722 3.39008 435.895 3.40667 436.09 3.44781C436.364 3.50418 436.384 3.49801 437.293 3.51333C437.387 3.51471 437.5 3.53754 437.554 3.55742C437.581 3.56813 437.521 3.59898 437.475 3.61442C437.415 3.63296 437.321 3.65462 437.235 3.65938C436.246 3.70104 435.251 3.7381 434.263 3.77976C434.163 3.78455 434.056 3.7955 433.983 3.81099C433.903 3.82803 433.803 3.85123 433.803 3.87274C433.804 3.8881 433.937 3.90631 434.031 3.9169C434.325 3.95173 434.672 3.89736 434.96 3.9368C435.154 3.96258 435.315 3.99917 435.509 4.02341C435.589 4.03402 435.716 4.03227 435.816 4.02903C436.15 4.01769 436.477 4.00176 436.811 3.99197C436.905 3.99027 437.012 4.00545 437.099 4.01759C437.741 4.10866 437.741 4.10865 438.295 4.08772C438.516 4.07965 438.749 4.0562 438.956 4.06506C439.157 4.07393 439.331 4.11511 439.512 4.14091C439.887 4.19557 440.241 4.24872 440.27 4.36851C440.283 4.41457 440.504 4.45413 440.725 4.45682C440.939 4.45952 441.166 4.44224 441.386 4.43264C441.907 4.4133 441.907 4.41329 442.583 4.50584C442.77 4.53163 442.971 4.53435 443.211 4.51857C443.304 4.51226 443.418 4.51822 443.518 4.52572C443.846 4.5482 443.846 4.57738 443.633 4.63306C443.334 4.71501 443.36 4.72265 444.203 4.79032C444.524 4.81588 444.772 4.86461 445.039 4.90716C445.474 4.97554 445.468 4.97554 445.182 5.06668C445.115 5.08677 445.055 5.10839 444.989 5.13001C444.796 5.19027 444.643 5.25505 444.242 5.26189C443.801 5.26881 443.361 5.29416 442.92 5.31183C442.493 5.32947 442.379 5.36652 442.421 5.47092C442.469 5.59682 442.556 5.6105 443.324 5.60762C443.545 5.60724 443.739 5.61919 443.906 5.66038C443.827 5.70968 443.68 5.74835 443.466 5.75794C442.919 5.78193 442.365 5.80287 441.817 5.82379C441.376 5.84146 440.936 5.85912 440.495 5.87678C440.221 5.88801 440.049 5.96821 440.123 6.05719C440.164 6.10781 440.198 6.15845 440.232 6.20909C440.307 6.31036 440.447 6.33624 440.895 6.33086C441.008 6.32912 441.115 6.31664 441.222 6.31952C441.656 6.32952 441.865 6.45667 442.386 6.42965C442.82 6.40739 443.274 6.40199 443.701 6.3736C444.095 6.34833 444.316 6.40327 444.59 6.44428C444.684 6.45794 444.785 6.48694 444.865 6.48526C445.419 6.4674 445.974 6.44955 446.514 6.41942C446.768 6.40669 446.922 6.41564 447.123 6.45216C447.605 6.54043 447.618 6.5358 448.333 6.5069C448.853 6.48449 448.86 6.48755 449.529 6.5801C449.717 6.6059 449.917 6.60554 450.157 6.59284C450.471 6.57693 450.798 6.55178 451.126 6.57426C451.226 6.58023 451.353 6.59845 451.387 6.61836C451.407 6.63215 451.314 6.66612 451.234 6.67701C450.647 6.75792 449.959 6.74529 449.318 6.77866C449.118 6.78823 448.917 6.75938 448.749 6.71819C448.575 6.67702 448.388 6.66045 448.161 6.66852C447.72 6.68619 447.273 6.69772 446.839 6.72305C446.465 6.74521 446.204 6.71032 445.943 6.66315C445.856 6.64794 445.755 6.61892 445.668 6.6206C444.68 6.65305 443.685 6.68551 442.703 6.73023C442.31 6.74935 442.082 6.70059 441.814 6.65957C441.72 6.64591 441.626 6.61688 441.54 6.61857C441.206 6.62529 440.879 6.64276 440.545 6.65563C439.329 6.70383 438.121 6.75202 436.905 6.79715C436.825 6.80036 436.725 6.76826 436.631 6.7546C436.45 6.72726 436.263 6.70146 436.075 6.67567C435.742 6.68854 435.414 6.70447 435.08 6.71427C434.84 6.72083 434.627 6.74272 434.594 6.80116C434.574 6.8396 434.795 6.87455 435.029 6.87107C435.256 6.8676 435.483 6.84877 435.67 6.86842C436.6 6.96513 436.6 6.96667 437.181 6.94569C437.689 6.92637 437.635 6.91109 438.083 6.99481C438.278 7.03135 438.452 7.05256 438.672 7.04296C439.22 7.0205 439.774 6.99803 440.328 6.97863C440.415 6.97541 440.529 6.99058 440.616 7.00272C441.271 7.09376 441.271 7.09683 441.812 7.07284C442.52 7.04396 442.547 7.03623 443.022 7.12912C443.35 7.19308 443.65 7.148 443.964 7.14438C444.326 7.20367 444.721 7.25677 445.049 7.32379C445.437 7.40301 445.845 7.38846 446.285 7.36465C446.612 7.34718 446.933 7.34048 447.201 7.40301C447.456 7.46094 447.763 7.46657 448.11 7.4506C448.424 7.43623 448.744 7.40647 449.072 7.4397C449.159 7.44877 449.293 7.47159 449.286 7.48543C449.28 7.50695 449.193 7.53783 449.107 7.5472C448.493 7.61125 447.818 7.61088 447.17 7.6412C447.084 7.64596 446.97 7.62925 446.883 7.61711C446.696 7.58978 446.515 7.55784 446.334 7.52896C446.007 7.53875 445.673 7.54239 445.352 7.56139C445.105 7.57564 444.918 7.57445 444.737 7.53789C444.57 7.50438 444.389 7.4632 444.189 7.4528C443.988 7.44239 443.755 7.46584 443.534 7.47544C443.314 7.48504 443.06 7.48087 442.887 7.50575C442.713 7.53063 442.607 7.58459 442.494 7.62781C442.367 7.67565 442.194 7.69133 441.94 7.69638C441.706 7.70139 441.519 7.69557 441.345 7.65285C441.271 7.63454 441.171 7.62089 441.071 7.60877C440.977 7.59818 440.87 7.58146 440.783 7.58468C439.788 7.62175 438.8 7.66188 437.805 7.70048C437.311 7.71978 437.317 7.71975 436.287 7.6309C436.194 7.62338 436.08 7.61283 435.987 7.61606C435.432 7.63546 434.885 7.65792 434.331 7.68039C433.77 7.70288 433.776 7.69979 432.82 7.60466C432.646 7.58653 432.392 7.61155 432.185 7.60884C431.751 7.60191 431.536 7.47324 431.028 7.4987C430.594 7.52096 430.14 7.52636 429.706 7.55477C429.312 7.58003 429.084 7.52666 428.817 7.48564C428.723 7.47198 428.622 7.44143 428.542 7.44464C427.547 7.48016 426.559 7.52029 425.236 7.5272C424.909 7.52776 425.056 7.55977 425.27 7.57016C425.578 7.58652 425.678 7.55409 425.51 7.49293C425.389 7.45012 425.215 7.4289 425.075 7.43989C425.001 7.44617 424.908 7.47553 425.236 7.5272C425.584 7.58497 425.565 7.61726 425.625 7.63559C425.773 7.67989 425.98 7.69797 426.194 7.69145C426.528 7.68012 426.855 7.66419 427.189 7.65439C427.282 7.65115 427.396 7.66171 427.483 7.67385C428.219 7.76783 428.226 7.77397 429.007 7.73574C429.254 7.72455 429.434 7.72424 429.628 7.75309C429.896 7.79257 430.091 7.85982 430.498 7.83761C431.039 7.80748 431.593 7.78963 432.147 7.77177C432.234 7.76854 432.328 7.79603 432.428 7.80815C432.703 7.84454 432.904 7.91333 433.311 7.88343C433.625 7.85984 433.965 7.85309 434.299 7.8479C434.386 7.84622 434.52 7.87057 434.56 7.89047C434.641 7.92567 434.541 7.96733 434.314 7.99691C434.221 8.00937 434.094 8.00651 433.987 8.0113C433.547 8.02897 433.106 8.04816 432.665 8.06276C432.431 8.07084 432.211 8.09428 432.185 8.15117C432.166 8.18961 432.407 8.22299 432.634 8.21952C432.968 8.21433 433.301 8.20146 433.622 8.18093C434.189 8.14615 434.684 8.1545 435.146 8.25049C435.474 8.31752 435.454 8.29298 435.804 8.4921C435.891 8.54265 436.152 8.5468 436.379 8.54333C436.927 8.5347 437.181 8.55731 437.134 8.60501C437.075 8.6635 436.881 8.68226 436.634 8.69037C436.194 8.70342 435.753 8.72417 435.312 8.74184C435.205 8.74663 435.085 8.75605 434.985 8.75315C434.885 8.75025 434.791 8.73198 434.704 8.71831C434.517 8.68944 434.356 8.64516 434.155 8.63475C433.955 8.62435 433.721 8.6478 433.501 8.6574C433.28 8.66547 433.047 8.68892 432.846 8.67851C432.646 8.6681 432.478 8.62232 432.297 8.59498C432.21 8.5813 432.103 8.55996 432.017 8.56165C431.576 8.57471 431.135 8.59545 430.694 8.61158C430.153 8.63249 430.153 8.6325 429.498 8.53838C429.31 8.51105 429.117 8.51293 428.87 8.52565C428.335 8.55116 428.329 8.54655 427.352 8.45914C427.259 8.45009 427.145 8.43953 427.051 8.4443C426.056 8.48137 425.068 8.52149 424.08 8.56008C423.232 8.59381 423.232 8.59382 422.766 8.74827C422.42 8.86256 422.413 8.86256 422.755 8.9142C423.029 8.95674 423.277 9.0193 423.578 9.04182C423.859 9.06284 424.205 8.99311 424.514 9.06324C424.668 9.09831 424.868 9.13637 425.062 9.14218C425.37 9.14933 425.696 9.1042 425.991 9.17129C426.139 9.20483 426.36 9.2398 426.547 9.24101C426.874 9.24351 427.208 9.21834 427.535 9.20702C427.635 9.20377 427.749 9.20358 427.842 9.2111C427.943 9.22014 428.03 9.23843 428.117 9.25364C428.385 9.30541 428.672 9.32949 429.019 9.30277C429.587 9.25876 430.095 9.27939 430.537 9.37695C430.597 9.39067 430.744 9.39196 430.837 9.38565C431.078 9.36987 431.285 9.36797 431.465 9.39684C431.539 9.40901 431.646 9.43032 431.633 9.44417C431.613 9.46725 431.533 9.49812 431.447 9.50595C430.819 9.55928 430.145 9.5666 429.497 9.59538C429.41 9.5986 429.303 9.57881 429.216 9.56513C429.029 9.5378 428.868 9.492 428.667 9.4816C428.467 9.47119 428.233 9.49157 428.013 9.49963C427.792 9.50769 427.559 9.53115 427.358 9.52228C427.158 9.51187 426.97 9.47378 426.81 9.44026C426.622 9.40218 426.442 9.3979 426.195 9.41369C425.874 9.43422 425.54 9.43786 425.213 9.44919C425.032 9.42031 424.852 9.38835 424.664 9.36102C424.577 9.34735 424.47 9.33064 424.377 9.33234C423.936 9.3454 423.495 9.36459 423.054 9.38225C422.614 9.39992 422.614 9.39993 421.864 9.30598C421.777 9.29538 421.663 9.28329 421.57 9.28652C421.016 9.30592 420.468 9.3299 419.914 9.3493C419.7 9.35735 419.506 9.33618 419.332 9.295C419.165 9.25381 418.964 9.23112 418.757 9.23916C417.875 9.27295 416.994 9.30521 416.113 9.34515C415.759 9.36113 415.458 9.34783 415.217 9.29294C414.935 9.23044 414.622 9.24635 414.294 9.25921C413.553 9.29122 413.546 9.28969 413.071 9.21216C412.977 9.19696 412.884 9.16793 412.797 9.16962C412.029 9.194 411.254 9.21685 410.493 9.25505C410.092 9.27572 409.878 9.22232 409.61 9.18284C409.517 9.16918 409.416 9.14016 409.336 9.14337C408.782 9.16123 408.227 9.17756 407.686 9.20923C407.146 9.2409 406.937 9.09838 406.529 9.10063C405.975 9.10313 405.428 9.13941 404.88 9.16187C404.439 9.17954 403.999 9.1972 403.558 9.21486C403.117 9.23253 402.676 9.24711 402.236 9.26785C402.002 9.27901 401.828 9.26548 401.634 9.22741C401.386 9.17714 401.092 9.13773 400.824 9.0921C400.416 9.02675 400.416 9.02674 399.922 9.04603C399.815 9.05083 399.701 9.05409 399.594 9.05889C398.786 9.09409 398.786 9.09103 397.756 8.99603C397.71 8.9915 397.59 9.00861 397.543 9.02098C397.403 9.06117 397.277 9.1044 397.15 9.1461C396.97 9.12183 396.749 9.10839 396.628 9.07326C396.286 8.974 395.754 9.11165 395.405 9.01393C395.278 8.97728 395.057 8.9454 394.856 8.93653C394.649 8.92767 394.415 8.94959 394.202 8.95918C393.648 8.98318 393.648 8.98165 393.175 9.11921C392.935 9.18722 392.588 9.17553 392.274 9.19144C391.947 9.2089 391.633 9.21867 391.358 9.15616C391.11 9.09974 390.81 9.08644 390.456 9.10549C390.022 9.12929 389.574 9.14389 389.134 9.15848C389.04 9.16172 388.926 9.15424 388.833 9.14518C387.81 9.05632 387.81 9.05478 387.315 9.07562C387.095 9.08522 386.868 9.08867 386.654 9.10287C386.294 9.12808 386.02 9.09629 385.759 9.04758C385.672 9.03237 385.571 9.00337 385.484 9.00505C385.043 9.0135 384.609 9.02808 384.175 9.04266C383.841 9.05399 383.507 9.06072 383.187 9.08279C382.653 9.11905 382.391 9.01963 382.023 8.97418C381.476 8.9951 380.921 9.00989 380.374 9.0385C380.12 9.05123 379.953 9.04692 379.759 9.01038C379.511 8.96472 379.283 8.91289 378.883 8.93663C378.349 8.96828 377.788 8.98001 377.24 8.9994C376.872 8.95241 376.604 8.85608 376.076 8.89233C375.756 8.91439 375.415 8.91959 375.088 8.93245C374.647 8.95012 374.207 8.96626 373.766 8.98546C373.292 9.00472 373.298 9.0001 372.569 8.91072C372.148 8.85768 371.714 8.91835 371.287 8.92831C370.953 8.93657 370.787 9.00753 370.868 9.09803C370.949 9.18853 370.77 9.25951 370.462 9.27234C369.694 9.30286 368.92 9.33492 368.152 9.36238C368.058 9.36561 367.945 9.35505 367.858 9.34445C367.035 9.24909 367.035 9.25064 366.668 9.26511C366.12 9.2891 365.559 9.30236 365.018 9.33249C364.645 9.35311 364.37 9.32133 364.129 9.26952C363.942 9.2299 363.768 9.22098 363.527 9.23061C360.883 9.33814 358.239 9.43798 355.601 9.54857C355.207 9.56462 354.98 9.52047 354.712 9.47945C354.618 9.46579 354.531 9.43674 354.437 9.4369C354.217 9.43729 353.997 9.4515 353.776 9.4611C352.788 9.49969 351.8 9.54595 350.805 9.57534C350.384 9.58836 350.271 9.65923 350.092 9.71792C349.952 9.76272 349.792 9.78143 349.545 9.788C349.304 9.79456 349.13 9.78718 348.943 9.74756C348.702 9.69574 348.428 9.66395 348.054 9.68611C347.62 9.71145 347.179 9.72298 346.732 9.74066C346.504 9.74873 346.331 9.77668 346.258 9.83212C346.245 9.84136 346.386 9.86416 346.466 9.87785C346.734 9.92348 346.988 9.9768 347.289 10.0085C347.597 10.0403 347.931 10.0028 348.251 9.99303C348.365 9.98976 348.471 9.98037 348.578 9.98172C348.679 9.98308 348.799 9.99056 348.873 10.0043C349.221 10.0728 349.589 10.1198 350.069 10.0775C350.484 10.0967 350.699 10.2238 351.227 10.1891C351.547 10.1686 351.881 10.1588 352.215 10.1505C352.302 10.1489 352.395 10.1764 352.489 10.19C352.757 10.228 352.971 10.289 353.372 10.2622C353.799 10.2338 354.253 10.2284 354.687 10.2062C354.928 10.1935 355.101 10.2039 355.289 10.2435C355.53 10.2938 355.805 10.3317 356.178 10.3065C356.499 10.2844 356.839 10.2792 357.167 10.2648C357.594 10.2472 357.594 10.2487 358.357 10.3427C358.444 10.3533 358.557 10.3654 358.651 10.3621C359.205 10.3427 359.753 10.3187 360.307 10.2993C360.521 10.2913 360.728 10.3109 360.875 10.3552C360.936 10.3735 360.916 10.4043 360.936 10.4304C359.835 10.4738 358.733 10.511 357.638 10.5636C357.224 10.5843 357.036 10.5216 356.762 10.4868C356.668 10.4747 356.568 10.4487 356.481 10.4519C355.706 10.4794 354.938 10.5084 354.17 10.5435C353.93 10.5547 353.75 10.5489 353.569 10.5046C353.106 10.3871 352.546 10.4526 352.025 10.4704C351.624 10.4834 351.498 10.5313 351.546 10.6326C351.608 10.7523 351.848 10.7888 352.463 10.7662C352.683 10.7581 352.903 10.747 353.124 10.7405C353.337 10.7339 353.532 10.7536 353.706 10.7947C353.873 10.8359 354.074 10.8571 354.281 10.8506C354.722 10.836 355.169 10.8214 355.596 10.7976C355.95 10.7786 356.244 10.7934 356.492 10.8498C356.767 10.9123 357.087 10.898 357.408 10.8836C358.156 10.8515 358.162 10.8531 358.631 10.9291C358.725 10.9443 358.819 10.9733 358.906 10.9716C359.673 10.9472 360.448 10.9259 361.203 10.8877C361.597 10.8686 361.824 10.9174 362.085 10.9569C362.179 10.9705 362.273 11.0011 362.36 10.9979C362.914 10.98 363.468 10.9622 364.009 10.932C364.263 10.9178 364.416 10.9267 364.624 10.9632C365.119 11.053 365.133 11.0499 365.834 11.0195C366.048 11.0099 366.281 10.9926 366.482 11.0045C366.682 11.0165 366.843 11.0608 367.031 11.0881C367.118 11.1002 367.225 11.1169 367.318 11.1137C367.759 11.1007 368.2 11.0815 368.64 11.0638C369.054 11.0462 369.054 11.0477 369.83 11.1416C370.145 11.181 370.472 11.1466 370.786 11.1338C371.126 11.1194 371.434 11.1189 371.695 11.1783C371.956 11.2378 372.27 11.2342 372.604 11.2213C372.918 11.2085 373.238 11.1741 373.559 11.215C374.295 11.309 374.295 11.3105 374.749 11.2913C375.41 11.264 376.065 11.2383 376.733 11.2141C376.819 11.2109 376.933 11.2291 377.02 11.2413C377.207 11.2686 377.368 11.3144 377.569 11.3248C377.77 11.3368 378.003 11.3179 378.217 11.3083C378.905 11.2779 378.951 11.2671 379.413 11.3677C379.802 11.45 380.281 11.3293 380.643 11.424C380.851 11.4774 381.132 11.5199 381.519 11.4931C381.84 11.471 382.174 11.4643 382.507 11.4514C383.035 11.4305 383.035 11.4321 383.704 11.5231C383.791 11.5353 383.905 11.5504 383.992 11.5472C384.433 11.5341 384.88 11.5226 385.307 11.4942C385.808 11.4611 386.129 11.5189 386.504 11.5751C386.799 11.6191 387.146 11.5817 387.459 11.5658C387.8 11.5498 388.107 11.5539 388.362 11.6133C388.63 11.6743 388.944 11.6661 389.278 11.6532C389.591 11.6419 389.912 11.606 390.233 11.6485C390.922 11.7426 390.922 11.7426 391.423 11.7232C391.864 11.7056 392.304 11.6864 392.745 11.6733C392.832 11.6701 392.939 11.6899 393.026 11.7036C393.213 11.7309 393.374 11.7767 393.575 11.7871C393.775 11.7975 394.009 11.7771 394.229 11.7691C394.45 11.761 394.683 11.7376 394.884 11.7464C395.084 11.7553 395.272 11.7934 395.433 11.8269C395.62 11.8665 395.794 11.8708 396.048 11.855C396.368 11.8345 396.702 11.8293 397.029 11.818C397.21 11.8469 397.397 11.8757 397.571 11.9077C397.752 11.9412 397.946 11.9378 398.193 11.9266C399.014 11.8883 399.021 11.8929 399.71 11.9869C400.025 12.0294 400.352 11.9935 400.666 11.9822C400.999 11.9693 401.313 11.9626 401.575 12.0236C401.829 12.0816 402.143 12.0887 402.477 12.0697C402.691 12.057 402.918 12.049 403.138 12.044C403.238 12.0423 403.359 12.0482 403.432 12.0604C403.787 12.1243 404.135 12.1821 404.622 12.1397C405.05 12.1513 405.265 12.2769 405.779 12.2514C406.213 12.2291 406.668 12.2237 407.095 12.1953C407.489 12.1701 407.77 12.2126 407.971 12.266C408.333 12.3607 408.839 12.2307 409.201 12.3238C409.409 12.3772 409.676 12.4198 410.077 12.396C410.518 12.3707 410.658 12.4027 410.786 12.4993C410.861 12.5544 410.848 12.599 410.715 12.6423C410.582 12.6871 410.435 12.6796 410.22 12.6293C409.972 12.5729 409.678 12.5626 409.324 12.5755C408.977 12.5884 408.762 12.5089 408.475 12.4787C408.187 12.447 407.847 12.5013 407.546 12.4604C406.837 12.3648 406.836 12.3648 406.356 12.3841C406.029 12.3969 405.688 12.4037 405.367 12.4257C404.987 12.4525 404.739 12.4053 404.478 12.3627C404.384 12.3475 404.29 12.3185 404.21 12.3202C403.442 12.3446 402.668 12.3674 401.907 12.4072C401.506 12.4278 401.292 12.3729 401.024 12.3349C400.93 12.3213 400.83 12.2938 400.749 12.297C400.088 12.3197 399.434 12.3485 398.773 12.3757C398.647 12.4174 398.507 12.4576 398.387 12.5024C398.261 12.5487 398.087 12.569 397.833 12.5679C397.412 12.5686 396.999 12.6338 396.577 12.5531C396.142 12.4709 396.109 12.4756 395.688 12.4963C395.154 12.5234 394.586 12.5182 394.086 12.579C393.999 12.5899 393.906 12.6192 393.906 12.6407C393.899 12.6546 394.04 12.6743 394.127 12.6864C394.421 12.7228 394.761 12.6684 395.056 12.7063C395.25 12.7306 395.411 12.7672 395.605 12.793C395.685 12.8036 395.805 12.8018 395.912 12.8001C396.026 12.7984 396.132 12.7874 396.239 12.7888C396.34 12.7902 396.447 12.7992 396.527 12.8129C396.895 12.8706 397.283 12.9237 397.611 12.9923C397.933 13.0593 398.233 13.0127 398.553 13.0091C399.837 13.1144 399.838 13.1159 400.699 13.0806C400.913 13.0726 401.133 13.063 401.353 13.0641C401.447 13.064 401.534 13.0915 401.628 13.1067C401.896 13.1523 402.15 13.1933 402.524 13.1681C402.844 13.146 403.185 13.1408 403.512 13.1264C403.953 13.1088 403.953 13.1088 404.702 13.2043C404.89 13.2285 405.09 13.2251 405.33 13.2124C405.537 13.2013 405.751 13.224 405.899 13.2683C405.959 13.2866 405.939 13.3173 405.96 13.3434C405.299 13.3692 404.631 13.3872 403.99 13.4252C403.576 13.449 403.388 13.3832 403.114 13.3484C403.02 13.3362 402.92 13.3103 402.833 13.3135C402.179 13.3377 401.524 13.3649 400.87 13.3968C400.79 13.4 400.69 13.4355 400.683 13.457C400.671 13.497 400.838 13.5351 401.078 13.5332C401.399 13.5311 401.713 13.5044 402.001 13.5669C402.242 13.6218 402.543 13.6459 402.897 13.6207C403.11 13.6065 403.338 13.6061 403.551 13.5934C404.119 13.5556 404.633 13.5623 405.062 13.6661C405.389 13.6932 405.71 13.6665 406.024 13.6521C406.257 13.641 406.484 13.6298 406.652 13.6587C407.007 13.7195 407.355 13.7804 407.842 13.7381C408.37 13.7802 408.772 13.8701 409.214 13.9431C409.422 13.9781 409.582 13.9978 409.822 13.9743C409.922 13.9649 410.043 13.9647 410.149 13.9599C410.37 13.9518 410.603 13.9284 410.804 13.9372C411.004 13.9476 411.172 13.9919 411.353 14.0193C411.44 14.0329 411.54 14.0558 411.627 14.0541C411.961 14.0459 412.288 14.0299 412.615 14.0171C412.942 14.0057 413.27 13.9944 413.597 13.9831C413.871 14.0226 414.152 14.062 414.427 14.1015C414.867 14.0838 415.308 14.0662 415.742 14.05C416.23 14.0308 416.23 14.0323 416.932 14.1263C417.247 14.1688 417.581 14.1406 417.881 14.1201C418.382 14.0869 418.716 14.1447 419.071 14.2056C419.145 14.2177 419.279 14.2252 419.365 14.2189C419.712 14.1968 420.013 14.2132 420.268 14.2696C420.449 14.3092 420.629 14.3273 420.85 14.3193C421.618 14.2887 422.385 14.2567 423.153 14.2292C423.247 14.226 423.354 14.2396 423.441 14.2518C424.123 14.3443 424.13 14.3489 424.631 14.3234C425.078 14.3012 425.492 14.2912 425.847 14.3751C425.921 14.3934 426.035 14.4193 426.115 14.4176C426.663 14.4013 427.217 14.3835 427.758 14.3564C428.005 14.3437 428.179 14.348 428.373 14.383C428.621 14.4271 428.842 14.4805 429.249 14.4598C430.377 14.401 430.384 14.4102 431.722 14.5139C431.815 14.5214 431.942 14.5089 432.049 14.5026C432.276 14.4868 432.443 14.5081 432.644 14.543C433.092 14.6222 433.106 14.6175 433.533 14.5999C433.86 14.5855 434.201 14.5818 434.521 14.5582C435.015 14.5236 435.343 14.5829 435.711 14.6391C436.006 14.6832 436.346 14.6457 436.66 14.6313C437 14.6154 437.308 14.6194 437.562 14.6774C437.737 14.717 437.924 14.7382 438.144 14.7301C438.912 14.7012 439.68 14.6691 440.448 14.6401C440.542 14.6369 440.655 14.649 440.742 14.6596C441.505 14.7535 441.505 14.7581 442.26 14.7215C442.5 14.7103 442.7 14.7069 442.881 14.7388C443.055 14.7692 443.243 14.7981 443.423 14.827C443.75 14.8157 444.084 14.812 444.405 14.793C444.652 14.7788 444.826 14.7846 445.02 14.8165C445.274 14.8576 445.489 14.9294 445.889 14.8934C446.096 14.8761 446.337 14.8803 446.544 14.8646C446.79 14.8442 446.958 14.8562 447.152 14.8958C447.393 14.943 447.641 14.9917 448.028 14.9665C448.455 14.9381 448.909 14.9327 449.343 14.9104C449.584 14.8977 449.751 14.9097 449.945 14.9493C450.186 14.9996 450.461 15.0314 450.834 15.0108C451.596 14.971 451.602 14.9787 452.345 15.0742C452.532 15.0984 452.733 15.095 452.973 15.0823C453.18 15.0712 453.394 15.0939 453.542 15.1382C453.682 15.1871 453.669 15.2178 453.683 15.2439ZM393.984 1.49145C393.764 1.49952 393.543 1.50912 393.221 1.37601C393.201 1.353 393.214 1.32533 393.167 1.30544C393.059 1.26415 392.892 1.23525 392.692 1.23099C392.331 1.22547 391.897 1.27845 391.904 1.31838C391.911 1.35217 392.025 1.38116 392.246 1.40843C392.34 1.41902 392.413 1.43733 392.5 1.44947C392.755 1.48436 392.956 1.55316 393.323 1.51719C393.289 1.46962 393.255 1.42205 393.323 1.51719C393.29 1.57562 393.391 1.61693 393.632 1.63341C393.699 1.63791 393.799 1.63465 393.852 1.62534C394.059 1.59118 394.092 1.54505 393.936 1.42394C393.91 1.44396 393.93 1.47925 393.991 1.48836C394.051 1.49748 394.198 1.48955 394.271 1.47867C394.458 1.44915 394.551 1.41058 394.504 1.3784C394.477 1.36155 394.35 1.34026 394.269 1.3404C394.129 1.34064 394.003 1.37466 393.984 1.49145ZM448.22 19.2141C447.733 19.2441 447.171 19.2343 446.684 19.2951C446.598 19.306 446.511 19.3338 446.505 19.3553C446.498 19.3692 446.632 19.3889 446.712 19.3995C446.893 19.4238 447.093 19.4158 447.327 19.4077C447.681 19.3963 447.889 19.4666 448.163 19.5015C448.25 19.5121 448.364 19.5196 448.457 19.5163C448.998 19.497 449.532 19.4761 450.073 19.4536C450.167 19.4489 450.267 19.4379 450.347 19.4239C450.614 19.3789 450.587 19.3498 450.326 19.3164C450.038 19.2801 449.81 19.219 449.516 19.1903C449.094 19.1496 448.667 19.2056 448.22 19.2141ZM410.295 20.4015C409.968 20.4143 409.647 20.4272 409.32 20.44C409.213 20.4448 409.099 20.4466 408.999 20.4529C408.792 20.464 408.639 20.4965 408.539 20.5474C408.694 20.5871 408.881 20.6098 409.088 20.6048C409.415 20.595 409.736 20.5745 410.063 20.5693C410.417 20.5626 410.625 20.6314 410.899 20.6662C410.986 20.6768 411.093 20.6782 411.193 20.6795C411.688 20.6848 411.987 20.6044 411.892 20.4924C411.825 20.405 411.57 20.3532 411.263 20.3645C410.942 20.3758 410.615 20.3886 410.295 20.4015ZM450.477 16.9395C450.557 16.9132 450.644 16.8946 450.683 16.8715C450.803 16.793 450.755 16.7347 450.534 16.6736C450.266 16.5988 449.939 16.65 449.639 16.6582C449.565 16.6599 449.485 16.6923 449.445 16.7123C449.419 16.7262 449.419 16.7554 449.459 16.763C449.788 16.8239 450.136 16.8801 450.477 16.9395ZM392.468 12.5019C392.147 12.5147 391.82 12.5245 391.5 12.542C391.42 12.5467 391.346 12.5761 391.3 12.5961C391.214 12.6331 391.308 12.6837 391.582 12.6878C391.896 12.6934 392.223 12.6667 392.55 12.6539C392.964 12.6378 393.21 12.5805 393.056 12.5316C392.909 12.4842 392.708 12.4754 392.468 12.5019ZM40.7696 9.82955C40.9833 9.8215 41.2037 9.81497 41.4173 9.80384C41.6176 9.79274 41.771 9.75867 41.8706 9.7078C41.7031 9.66815 41.5157 9.64697 41.3086 9.65193C40.9814 9.66172 40.6609 9.67457 40.3404 9.69049C40.1401 9.70005 39.9469 9.73419 39.9007 9.7865C39.8545 9.82653 40.3022 9.8488 40.7696 9.82955ZM364.173 9.0313C364.26 9.04498 364.347 9.07248 364.434 9.07233C364.648 9.07196 364.868 9.06235 365.068 9.04664C365.155 9.04035 365.222 9.01258 365.261 8.991C365.288 8.97713 365.281 8.95257 365.241 8.94035C365.046 8.86694 364.271 8.8944 364.146 8.97912C364.132 8.9945 364.166 9.01441 364.173 9.0313ZM342.993 0.655132C343.014 0.679678 343.021 0.704244 343.048 0.728778C343.102 0.774775 343.249 0.808325 343.463 0.830998C343.63 0.792301 343.716 0.74914 343.709 0.703063C343.702 0.678493 343.681 0.653932 343.654 0.629397C343.6 0.583401 343.453 0.54987 343.239 0.527197C343.072 0.564358 342.993 0.607507 342.993 0.655132ZM465.96 20.5721C465.9 20.5922 465.841 20.6123 465.774 20.6308C465.955 20.6751 466.122 20.6886 466.249 20.6638C466.329 20.6483 466.375 20.6252 466.435 20.6051C466.254 20.5609 466.094 20.5489 465.96 20.5721ZM461.808 20.7883C461.895 20.802 461.975 20.8203 462.069 20.8293C462.223 20.8444 462.362 20.818 462.469 20.7625C462.382 20.7489 462.301 20.7306 462.208 20.7215C462.054 20.7064 461.914 20.7328 461.808 20.7883ZM464.436 20.5026C464.39 20.5395 464.484 20.5701 464.731 20.5958C464.791 20.5757 464.871 20.5571 464.911 20.5355C464.978 20.5001 464.863 20.468 464.623 20.4439C464.556 20.4624 464.496 20.4825 464.436 20.5026ZM450.314 18.8709C450.267 18.9079 450.361 18.9384 450.609 18.9641C450.668 18.9441 450.748 18.9255 450.788 18.9039C450.855 18.8684 450.741 18.8364 450.5 18.8122C450.433 18.8308 450.373 18.8509 450.314 18.8709ZM430.968 8.03345C430.908 8.05352 430.848 8.0736 430.782 8.09215C430.962 8.13639 431.13 8.14992 431.256 8.12512C431.336 8.10962 431.383 8.08649 431.443 8.06642C431.262 8.02218 431.101 8.01017 430.968 8.03345ZM412.493 2.29814C412.653 2.30861 412.787 2.28688 412.899 2.22984C412.812 2.21617 412.732 2.19787 412.638 2.18881C412.484 2.17372 412.345 2.20008 412.238 2.25558C412.325 2.27079 412.412 2.28445 412.493 2.29814ZM402.715 1.95409C402.655 1.97416 402.595 1.99424 402.528 2.01279C402.709 2.05703 402.876 2.07056 403.003 2.04576C403.083 2.03026 403.13 2.00713 403.189 1.98706C403.008 1.94282 402.848 1.93235 402.715 1.95409ZM336.42 0.66501C336.36 0.685087 336.3 0.705164 336.233 0.723715C336.414 0.767955 336.581 0.781487 336.708 0.756686C336.788 0.741184 336.835 0.718057 336.894 0.697981C336.714 0.653741 336.553 0.64327 336.42 0.66501ZM6.55852 13.7375C6.4715 13.7238 6.38457 13.7101 6.30421 13.6949C6.11098 13.7367 6.05134 13.7752 6.15859 13.8042C6.22562 13.8225 6.32588 13.8331 6.41289 13.8468C6.61281 13.805 6.6591 13.768 6.55852 13.7375Z" fill="#FFE492"/>
</svg>
